<svg width="2232" height="171" viewBox="0 0 2232 171" fill="none" xmlns="http://www.w3.org/2000/svg">
<path d="M223.22 137.68C215.473 137.68 208.053 136.653 200.96 134.6C193.867 132.547 188.173 129.933 183.88 126.76L193.12 109.26C197.6 112.527 202.64 115.047 208.24 116.82C213.84 118.593 219.58 119.48 225.46 119.48C231.713 119.48 236.66 118.453 240.3 116.4C243.94 114.347 245.76 111.547 245.76 108C245.76 105.107 244.313 102.913 241.42 101.42C238.527 99.8333 233.907 98.1533 227.56 96.38C221.213 94.5133 216.033 92.74 212.02 91.06C208.007 89.2867 204.507 86.6733 201.52 83.22C198.627 79.7667 197.18 75.1933 197.18 69.5C197.18 62.8733 199 57.04 202.64 52C206.373 46.96 211.6 43.0867 218.32 40.38C225.133 37.6733 233.02 36.32 241.98 36.32C248.607 36.32 254.86 37.0667 260.74 38.56C266.62 39.96 271.66 42.0133 275.86 44.72L267.32 62.08C263.68 59.56 259.573 57.6933 255 56.48C250.427 55.1733 245.667 54.52 240.72 54.52C234.28 54.52 229.193 55.64 225.46 57.88C221.727 60.12 219.86 63.0133 219.86 66.56C219.86 68.7067 220.653 70.5267 222.24 72.02C223.827 73.42 225.833 74.5867 228.26 75.52C230.687 76.36 234.093 77.3867 238.48 78.6C244.733 80.28 249.867 82.0067 253.88 83.78C257.893 85.46 261.3 87.98 264.1 91.34C266.993 94.6067 268.44 98.9467 268.44 104.36C268.44 111.08 266.573 116.96 262.84 122C259.107 126.947 253.833 130.82 247.02 133.62C240.207 136.327 232.273 137.68 223.22 137.68ZM337.557 38C349.784 38 359.211 40.7067 365.837 46.12C372.557 51.44 375.917 58.9067 375.917 68.52C375.917 76.7333 373.957 83.92 370.037 90.08C366.211 96.1467 360.704 100.813 353.517 104.08C346.424 107.347 338.024 108.98 328.317 108.98H306.477L301.157 136H278.337L297.937 38H337.557ZM329.297 90.5C336.857 90.5 342.691 88.7733 346.797 85.32C350.904 81.8667 352.957 76.92 352.957 70.48C352.957 65.8133 351.371 62.3133 348.197 59.98C345.117 57.6467 340.637 56.48 334.757 56.48H316.977L310.117 90.5H329.297ZM418.009 56.2L413.809 77.48H459.309L455.809 95.12H410.169L405.689 117.8H459.169L455.389 136H379.509L399.109 38H473.169L469.389 56.2H418.009ZM524.682 137.68C514.882 137.68 506.295 135.907 498.922 132.36C491.642 128.813 486.042 123.82 482.122 117.38C478.202 110.94 476.242 103.52 476.242 95.12C476.242 84.0133 478.762 74.0267 483.802 65.16C488.935 56.2 496.122 49.1533 505.362 44.02C514.602 38.8867 525.195 36.32 537.142 36.32C545.915 36.32 553.662 37.8133 560.382 40.8C567.102 43.7867 572.188 48.08 575.642 53.68L559.262 67.12C554.035 59.4667 546.148 55.64 535.602 55.64C528.415 55.64 522.068 57.32 516.562 60.68C511.055 64.04 506.762 68.6133 503.682 74.4C500.695 80.1867 499.202 86.6267 499.202 93.72C499.202 101.28 501.582 107.3 506.342 111.78C511.195 116.167 517.962 118.36 526.642 118.36C537.002 118.36 545.682 114.58 552.682 107.02L566.122 120.74C556.415 132.033 542.602 137.68 524.682 137.68ZM595.437 38H618.257L598.657 136H575.837L595.437 38ZM691.495 115H645.855L633.115 136H608.895L672.315 38H694.715L718.795 136H696.115L691.495 115ZM687.715 97.78L679.455 59.98L656.355 97.78H687.715ZM748.562 38H771.382L755.422 117.52H804.562L800.782 136H728.962L748.562 38ZM872.703 38H913.723C923.71 38 932.296 39.68 939.483 43.04C946.763 46.3067 952.316 51.02 956.143 57.18C960.063 63.34 962.023 70.5733 962.023 78.88C962.023 90.2667 959.456 100.3 954.323 108.98C949.19 117.567 942.003 124.24 932.763 129C923.616 133.667 913.023 136 900.983 136H853.103L872.703 38ZM901.683 117.38C909.336 117.38 915.963 115.793 921.563 112.62C927.256 109.353 931.596 104.92 934.583 99.32C937.57 93.6267 939.063 87.2333 939.063 80.14C939.063 72.7667 936.683 67.0267 931.923 62.92C927.163 58.72 920.256 56.62 911.203 56.62H891.743L879.563 117.38H901.683ZM1007.27 56.2L1003.07 77.48H1048.57L1045.07 95.12H999.427L994.947 117.8H1048.43L1044.65 136H968.767L988.367 38H1062.43L1058.65 56.2H1007.27ZM1132.41 115H1086.77L1074.03 136H1049.81L1113.23 38H1135.63L1159.71 136H1137.03L1132.41 115ZM1128.63 97.78L1120.37 59.98L1097.27 97.78H1128.63ZM1189.48 38H1212.3L1196.34 117.52H1245.48L1241.7 136H1169.88L1189.48 38ZM1287.99 137.68C1280.24 137.68 1272.82 136.653 1265.73 134.6C1258.63 132.547 1252.94 129.933 1248.65 126.76L1257.89 109.26C1262.37 112.527 1267.41 115.047 1273.01 116.82C1278.61 118.593 1284.35 119.48 1290.23 119.48C1296.48 119.48 1301.43 118.453 1305.07 116.4C1308.71 114.347 1310.53 111.547 1310.53 108C1310.53 105.107 1309.08 102.913 1306.19 101.42C1303.29 99.8333 1298.67 98.1533 1292.33 96.38C1285.98 94.5133 1280.8 92.74 1276.79 91.06C1272.77 89.2867 1269.27 86.6733 1266.29 83.22C1263.39 79.7667 1261.95 75.1933 1261.95 69.5C1261.95 62.8733 1263.77 57.04 1267.41 52C1271.14 46.96 1276.37 43.0867 1283.09 40.38C1289.9 37.6733 1297.79 36.32 1306.75 36.32C1313.37 36.32 1319.63 37.0667 1325.51 38.56C1331.39 39.96 1336.43 42.0133 1340.63 44.72L1332.09 62.08C1328.45 59.56 1324.34 57.6933 1319.77 56.48C1315.19 55.1733 1310.43 54.52 1305.49 54.52C1299.05 54.52 1293.96 55.64 1290.23 57.88C1286.49 60.12 1284.63 63.0133 1284.63 66.56C1284.63 68.7067 1285.42 70.5267 1287.01 72.02C1288.59 73.42 1290.6 74.5867 1293.03 75.52C1295.45 76.36 1298.86 77.3867 1303.25 78.6C1309.5 80.28 1314.63 82.0067 1318.65 83.78C1322.66 85.46 1326.07 87.98 1328.87 91.34C1331.76 94.6067 1333.21 98.9467 1333.21 104.36C1333.21 111.08 1331.34 116.96 1327.61 122C1323.87 126.947 1318.6 130.82 1311.79 133.62C1304.97 136.327 1297.04 137.68 1287.99 137.68ZM1421.39 56.2L1416.21 82.1H1461.71L1457.93 100.3H1412.71L1405.57 136H1382.75L1402.35 38H1476.41L1472.63 56.2H1421.39ZM1522.03 137.68C1512.23 137.68 1503.74 135.907 1496.55 132.36C1489.36 128.813 1483.86 123.82 1480.03 117.38C1476.2 110.94 1474.29 103.52 1474.29 95.12C1474.29 84.0133 1476.81 74.0267 1481.85 65.16C1486.98 56.2 1494.12 49.1533 1503.27 44.02C1512.51 38.8867 1523.06 36.32 1534.91 36.32C1544.71 36.32 1553.2 38.0933 1560.39 41.64C1567.58 45.1867 1573.08 50.18 1576.91 56.62C1580.74 63.06 1582.65 70.48 1582.65 78.88C1582.65 89.9867 1580.08 100.02 1574.95 108.98C1569.91 117.847 1562.77 124.847 1553.53 129.98C1544.38 135.113 1533.88 137.68 1522.03 137.68ZM1523.99 118.36C1531.18 118.36 1537.48 116.633 1542.89 113.18C1548.3 109.727 1552.46 105.107 1555.35 99.32C1558.24 93.5333 1559.69 87.14 1559.69 80.14C1559.69 72.6733 1557.36 66.7467 1552.69 62.36C1548.02 57.88 1541.44 55.64 1532.95 55.64C1525.76 55.64 1519.46 57.3667 1514.05 60.82C1508.64 64.2733 1504.48 68.8933 1501.59 74.68C1498.7 80.4667 1497.25 86.86 1497.25 93.86C1497.25 101.327 1499.58 107.3 1504.25 111.78C1508.92 116.167 1515.5 118.36 1523.99 118.36ZM1687.19 68.38C1687.19 77.5267 1684.72 85.3667 1679.77 91.9C1674.83 98.4333 1667.97 103.053 1659.19 105.76L1676.27 136H1652.33L1636.93 108.56H1617.61L1612.15 136H1589.33L1608.93 38H1648.83C1660.97 38 1670.39 40.66 1677.11 45.98C1683.83 51.3 1687.19 58.7667 1687.19 68.38ZM1640.43 90.5C1647.99 90.5 1653.83 88.7733 1657.93 85.32C1662.13 81.8667 1664.23 76.92 1664.23 70.48C1664.23 65.8133 1662.65 62.3133 1659.47 59.98C1656.3 57.6467 1651.77 56.48 1645.89 56.48H1627.97L1621.11 90.5H1640.43ZM1785.69 101.98L1778.97 136H1756.29L1763.15 101L1737.95 38H1760.63L1778.13 81.68L1813.27 38H1836.65L1785.69 101.98ZM1873.12 137.68C1863.32 137.68 1854.83 135.907 1847.64 132.36C1840.46 128.813 1834.95 123.82 1831.12 117.38C1827.3 110.94 1825.38 103.52 1825.38 95.12C1825.38 84.0133 1827.9 74.0267 1832.94 65.16C1838.08 56.2 1845.22 49.1533 1854.36 44.02C1863.6 38.8867 1874.15 36.32 1886 36.32C1895.8 36.32 1904.3 38.0933 1911.48 41.64C1918.67 45.1867 1924.18 50.18 1928 56.62C1931.83 63.06 1933.74 70.48 1933.74 78.88C1933.74 89.9867 1931.18 100.02 1926.04 108.98C1921 117.847 1913.86 124.847 1904.62 129.98C1895.48 135.113 1884.98 137.68 1873.12 137.68ZM1875.08 118.36C1882.27 118.36 1888.57 116.633 1893.98 113.18C1899.4 109.727 1903.55 105.107 1906.44 99.32C1909.34 93.5333 1910.78 87.14 1910.78 80.14C1910.78 72.6733 1908.45 66.7467 1903.78 62.36C1899.12 57.88 1892.54 55.64 1884.04 55.64C1876.86 55.64 1870.56 57.3667 1865.14 60.82C1859.73 64.2733 1855.58 68.8933 1852.68 74.68C1849.79 80.4667 1848.34 86.86 1848.34 93.86C1848.34 101.327 1850.68 107.3 1855.34 111.78C1860.01 116.167 1866.59 118.36 1875.08 118.36ZM1986.63 137.68C1974.31 137.68 1964.65 134.647 1957.65 128.58C1950.65 122.42 1947.15 114.02 1947.15 103.38C1947.15 100.3 1947.52 96.8 1948.27 92.88L1959.19 38H1982.01L1971.09 92.46C1970.53 95.54 1970.25 98.2933 1970.25 100.72C1970.25 106.6 1971.83 111.033 1975.01 114.02C1978.27 116.913 1982.99 118.36 1989.15 118.36C1996.05 118.36 2001.56 116.307 2005.67 112.2C2009.77 108.093 2012.76 101.513 2014.63 92.46L2025.55 38H2047.81L2036.75 93.86C2030.77 123.073 2014.07 137.68 1986.63 137.68Z" fill="white"/>
<path d="M183.88 126.76L179.458 124.425L177.452 128.226L180.908 130.781L183.88 126.76ZM193.12 109.26L196.066 105.22L191.397 101.815L188.698 106.925L193.12 109.26ZM208.24 116.82L209.749 112.053L209.749 112.053L208.24 116.82ZM240.3 116.4L242.757 120.755L242.757 120.755L240.3 116.4ZM241.42 101.42L239.016 105.804L239.071 105.834L239.127 105.863L241.42 101.42ZM227.56 96.38L226.149 101.177L226.182 101.186L226.214 101.196L227.56 96.38ZM212.02 91.06L209.999 95.6334L210.044 95.6533L210.089 95.6722L212.02 91.06ZM201.52 83.22L197.687 86.4311L197.713 86.4611L197.738 86.4908L201.52 83.22ZM202.64 52L198.622 49.0239L198.604 49.0481L198.587 49.0725L202.64 52ZM218.32 40.38L216.474 35.7332L216.463 35.7376L216.452 35.7421L218.32 40.38ZM260.74 38.56L259.509 43.4061L259.546 43.4154L259.582 43.424L260.74 38.56ZM275.86 44.72L280.347 46.9271L282.313 42.9301L278.569 40.5171L275.86 44.72ZM267.32 62.08L264.474 66.191L269.245 69.494L271.807 64.2871L267.32 62.08ZM255 56.48L253.626 61.2876L253.672 61.3006L253.718 61.3128L255 56.48ZM225.46 57.88L222.888 53.5925L222.888 53.5925L225.46 57.88ZM222.24 72.02L218.813 75.661L218.872 75.716L218.932 75.7692L222.24 72.02ZM228.26 75.52L226.465 80.1867L226.544 80.2172L226.624 80.2449L228.26 75.52ZM238.48 78.6L237.147 83.4191L237.165 83.424L237.183 83.4288L238.48 78.6ZM253.88 83.78L251.859 88.3534L251.904 88.3733L251.949 88.3922L253.88 83.78ZM264.1 91.34L260.259 94.5409L260.307 94.5988L260.357 94.6552L264.1 91.34ZM262.84 122L266.831 125.012L266.844 124.994L266.858 124.976L262.84 122ZM247.02 133.62L248.866 138.267L248.893 138.256L248.921 138.245L247.02 133.62ZM223.22 132.68C215.921 132.68 208.97 131.713 202.35 129.797L199.57 139.403C207.137 141.593 215.026 142.68 223.22 142.68V132.68ZM202.35 129.797C195.624 127.85 190.524 125.453 186.852 122.739L180.908 130.781C185.822 134.413 192.109 137.243 199.57 139.403L202.35 129.797ZM188.302 129.095L197.542 111.595L188.698 106.925L179.458 124.425L188.302 129.095ZM190.174 113.3C195.116 116.903 200.646 119.66 206.731 121.587L209.749 112.053C204.634 110.433 200.084 108.15 196.066 105.22L190.174 113.3ZM206.731 121.587C212.819 123.515 219.068 124.48 225.46 124.48V114.48C220.092 114.48 214.861 113.672 209.749 112.053L206.731 121.587ZM225.46 124.48C232.179 124.48 238.085 123.39 242.757 120.755L237.843 112.045C235.235 113.517 231.248 114.48 225.46 114.48V124.48ZM242.757 120.755C247.634 118.004 250.76 113.705 250.76 108H240.76C240.76 109.389 240.246 110.69 237.843 112.045L242.757 120.755ZM250.76 108C250.76 105.678 250.165 103.428 248.849 101.432C247.554 99.4682 245.741 98.0236 243.713 96.9769L239.127 105.863C239.992 106.31 240.35 106.708 240.501 106.938C240.632 107.136 240.76 107.429 240.76 108H250.76ZM243.824 97.0359C240.408 95.1625 235.332 93.3601 228.906 91.5644L226.214 101.196C232.481 102.947 236.645 104.504 239.016 105.804L243.824 97.0359ZM228.971 91.5832C222.72 89.7447 217.731 88.0304 213.951 86.4478L210.089 95.6722C214.335 97.4496 219.707 99.2819 226.149 101.177L228.971 91.5832ZM214.041 86.4866C210.731 85.0242 207.825 82.8668 205.302 79.9492L197.738 86.4908C201.188 90.4798 205.282 93.5492 209.999 95.6334L214.041 86.4866ZM205.353 80.0089C203.395 77.6723 202.18 74.3367 202.18 69.5H192.18C192.18 76.0499 193.858 81.861 197.687 86.4311L205.353 80.0089ZM202.18 69.5C202.18 63.851 203.71 59.0577 206.693 54.9274L198.587 49.0725C194.29 55.0223 192.18 61.8957 192.18 69.5H202.18ZM206.658 54.9761C209.761 50.7869 214.189 47.4342 220.188 45.0179L216.452 35.7421C209.011 38.7392 202.986 43.1331 198.622 49.0239L206.658 54.9761ZM220.166 45.0268C226.277 42.599 233.516 41.32 241.98 41.32V31.32C232.524 31.32 223.989 32.7477 216.474 35.7332L220.166 45.0268ZM241.98 41.32C248.229 41.32 254.067 42.0239 259.509 43.4061L261.971 33.7138C255.653 32.1094 248.984 31.32 241.98 31.32V41.32ZM259.582 43.424C265.023 44.7196 269.515 46.5793 273.151 48.9229L278.569 40.5171C273.805 37.4473 268.217 35.2004 261.898 33.696L259.582 43.424ZM271.373 42.5129L262.833 59.8729L271.807 64.2871L280.347 46.9271L271.373 42.5129ZM270.166 57.969C266.019 55.0978 261.376 52.9986 256.282 51.6472L253.718 61.3128C257.771 62.3881 261.341 64.0222 264.474 66.191L270.166 57.969ZM256.374 51.6724C251.336 50.233 246.113 49.52 240.72 49.52V59.52C245.221 59.52 249.517 60.1136 253.626 61.2876L256.374 51.6724ZM240.72 49.52C233.779 49.52 227.684 50.7144 222.888 53.5925L228.032 62.1675C230.702 60.5656 234.781 59.52 240.72 59.52V49.52ZM222.888 53.5925C218.047 56.4969 214.86 60.8372 214.86 66.56H224.86C224.86 65.1895 225.406 63.7431 228.032 62.1675L222.888 53.5925ZM214.86 66.56C214.86 70.1086 216.24 73.2389 218.813 75.661L225.667 68.379C225.067 67.8145 224.86 67.3047 224.86 66.56H214.86ZM218.932 75.7692C221.053 77.641 223.606 79.0871 226.465 80.1867L230.055 70.8533C228.061 70.0862 226.6 69.199 225.548 68.2708L218.932 75.7692ZM226.624 80.2449C229.199 81.1361 232.723 82.1954 237.147 83.4191L239.813 73.7809C235.463 72.5779 232.174 71.5839 229.896 70.7951L226.624 80.2449ZM237.183 83.4288C243.293 85.0704 248.162 86.7197 251.859 88.3534L255.901 79.2066C251.571 77.2936 246.173 75.4896 239.777 73.7712L237.183 83.4288ZM251.949 88.3922C255.218 89.7603 257.97 91.7946 260.259 94.5409L267.941 88.1391C264.63 84.1654 260.569 81.1596 255.811 79.1678L251.949 88.3922ZM260.357 94.6552C262.259 96.802 263.44 99.8626 263.44 104.36H273.44C273.44 98.0307 271.728 92.4113 267.843 88.0248L260.357 94.6552ZM263.44 104.36C263.44 110.09 261.871 114.908 258.822 119.024L266.858 124.976C271.276 119.012 273.44 112.07 273.44 104.36H263.44ZM258.849 118.988C255.749 123.095 251.261 126.471 245.119 128.995L248.921 138.245C256.405 135.169 262.464 130.798 266.831 125.012L258.849 118.988ZM245.174 128.973C239.068 131.399 231.785 132.68 223.22 132.68V142.68C232.762 142.68 241.345 141.255 248.866 138.267L245.174 128.973ZM365.837 46.12L362.674 49.9922L362.704 50.0164L362.734 50.0402L365.837 46.12ZM370.037 90.08L365.819 87.3956L365.814 87.404L365.808 87.4125L370.037 90.08ZM353.517 104.08L351.448 99.5282L351.437 99.5333L351.426 99.5385L353.517 104.08ZM306.477 108.98V103.98H302.366L301.572 108.014L306.477 108.98ZM301.157 136V141H305.269L306.063 136.966L301.157 136ZM278.337 136L273.434 135.019L272.238 141H278.337V136ZM297.937 38V33H293.838L293.034 37.0194L297.937 38ZM346.797 85.32L343.579 81.4932L343.579 81.4932L346.797 85.32ZM348.197 59.98L345.178 63.9655L345.207 63.9871L345.235 64.0082L348.197 59.98ZM316.977 56.48V51.48H312.885L312.076 55.4917L316.977 56.48ZM310.117 90.5L305.216 89.5117L304.008 95.5H310.117V90.5ZM337.557 43C349.115 43 357.254 45.5648 362.674 49.9922L369.001 42.2478C361.167 35.8485 350.453 33 337.557 33V43ZM362.734 50.0402C368.1 54.2881 370.917 60.2233 370.917 68.52H380.917C380.917 57.59 377.015 48.5919 368.941 42.1998L362.734 50.0402ZM370.917 68.52C370.917 75.9047 369.167 82.1352 365.819 87.3956L374.256 92.7644C378.748 85.7048 380.917 77.5619 380.917 68.52H370.917ZM365.808 87.4125C362.554 92.5714 357.839 96.6231 351.448 99.5282L355.586 108.632C363.569 105.004 369.867 99.7219 374.266 92.7475L365.808 87.4125ZM351.426 99.5385C345.128 102.439 337.473 103.98 328.317 103.98V113.98C338.575 113.98 347.72 112.254 355.609 108.622L351.426 99.5385ZM328.317 103.98H306.477V113.98H328.317V103.98ZM301.572 108.014L296.252 135.034L306.063 136.966L311.383 109.946L301.572 108.014ZM301.157 131H278.337V141H301.157V131ZM283.24 136.981L302.84 38.9806L293.034 37.0194L273.434 135.019L283.24 136.981ZM297.937 43H337.557V33H297.937V43ZM329.297 95.5C337.559 95.5 344.701 93.6161 350.015 89.1468L343.579 81.4932C340.681 83.9306 336.156 85.5 329.297 85.5V95.5ZM350.015 89.1468C355.479 84.5522 357.957 78.0706 357.957 70.48H347.957C347.957 75.7694 346.329 79.1812 343.579 81.4932L350.015 89.1468ZM357.957 70.48C357.957 64.5558 355.86 59.4085 351.159 55.9517L345.235 64.0082C346.881 65.2182 347.957 67.0709 347.957 70.48H357.957ZM351.217 55.9945C346.919 52.7388 341.189 51.48 334.757 51.48V61.48C340.085 61.48 343.316 62.5545 345.178 63.9655L351.217 55.9945ZM334.757 51.48H316.977V61.48H334.757V51.48ZM312.076 55.4917L305.216 89.5117L315.019 91.4883L321.879 57.4683L312.076 55.4917ZM310.117 95.5H329.297V85.5H310.117V95.5ZM418.009 56.2V51.2H413.9L413.104 55.2318L418.009 56.2ZM413.809 77.48L408.904 76.5118L407.726 82.48H413.809V77.48ZM459.309 77.48L464.214 78.4531L465.399 72.48H459.309V77.48ZM455.809 95.12V100.12H459.915L460.714 96.0931L455.809 95.12ZM410.169 95.12V90.12H406.06L405.264 94.1511L410.169 95.12ZM405.689 117.8L400.784 116.831L399.605 122.8H405.689V117.8ZM459.169 117.8L464.065 118.817L465.314 112.8H459.169V117.8ZM455.389 136V141H459.457L460.285 137.017L455.389 136ZM379.509 136L374.606 135.019L373.41 141H379.509V136ZM399.109 38V33H395.01L394.206 37.0194L399.109 38ZM473.169 38L478.065 39.0168L479.314 33H473.169V38ZM469.389 56.2V61.2H473.457L474.285 57.2168L469.389 56.2ZM413.104 55.2318L408.904 76.5118L418.715 78.4482L422.915 57.1682L413.104 55.2318ZM413.809 82.48H459.309V72.48H413.809V82.48ZM454.405 76.5069L450.905 94.1469L460.714 96.0931L464.214 78.4531L454.405 76.5069ZM455.809 90.12H410.169V100.12H455.809V90.12ZM405.264 94.1511L400.784 116.831L410.594 118.769L415.074 96.0889L405.264 94.1511ZM405.689 122.8H459.169V112.8H405.689V122.8ZM454.274 116.783L450.494 134.983L460.285 137.017L464.065 118.817L454.274 116.783ZM455.389 131H379.509V141H455.389V131ZM384.412 136.981L404.012 38.9806L394.206 37.0194L374.606 135.019L384.412 136.981ZM399.109 43H473.169V33H399.109V43ZM468.274 36.9832L464.494 55.1832L474.285 57.2168L478.065 39.0168L468.274 36.9832ZM469.389 51.2H418.009V61.2H469.389V51.2ZM498.922 132.36L496.732 136.855L496.743 136.86L496.754 136.866L498.922 132.36ZM482.122 117.38L477.851 119.98L477.851 119.98L482.122 117.38ZM483.802 65.16L479.463 62.6744L479.459 62.6818L479.455 62.6892L483.802 65.16ZM505.362 44.02L507.79 48.3908L507.79 48.3908L505.362 44.02ZM560.382 40.8L558.351 45.3691L558.351 45.3691L560.382 40.8ZM575.642 53.68L578.813 57.5454L582.191 54.7742L579.897 51.0556L575.642 53.68ZM559.262 67.12L555.133 69.9398L558.212 74.4489L562.433 70.9854L559.262 67.12ZM516.562 60.68L513.957 56.4118L513.957 56.4118L516.562 60.68ZM503.682 74.4L499.268 72.0508L499.253 72.0787L499.238 72.1068L503.682 74.4ZM506.342 111.78L502.915 115.421L502.951 115.456L502.989 115.489L506.342 111.78ZM552.682 107.02L556.253 103.521L552.58 99.7708L549.013 103.623L552.682 107.02ZM566.122 120.74L569.913 123.999L572.904 120.519L569.693 117.241L566.122 120.74ZM524.682 132.68C515.485 132.68 507.665 131.018 501.089 127.854L496.754 136.866C504.924 140.796 514.278 142.68 524.682 142.68V132.68ZM501.111 127.865C494.626 124.705 489.777 120.341 486.393 114.78L477.851 119.98C482.306 127.299 488.657 132.921 496.732 136.855L501.111 127.865ZM486.393 114.78C483.002 109.211 481.242 102.711 481.242 95.12H471.242C471.242 104.329 473.401 112.669 477.851 119.98L486.393 114.78ZM481.242 95.12C481.242 84.8003 483.574 75.6783 488.148 67.6308L479.455 62.6892C473.949 72.375 471.242 83.2264 471.242 95.12H481.242ZM488.14 67.6456C492.809 59.4957 499.327 53.0925 507.79 48.3908L502.933 39.6492C492.916 45.2141 485.061 52.9043 479.463 62.6744L488.14 67.6456ZM507.79 48.3908C516.195 43.7215 525.932 41.32 537.142 41.32V31.32C524.458 31.32 513.009 34.0519 502.933 39.6492L507.79 48.3908ZM537.142 41.32C545.348 41.32 552.381 42.7159 558.351 45.3691L562.412 36.2309C554.942 32.9107 546.482 31.32 537.142 31.32V41.32ZM558.351 45.3691C564.263 47.9966 568.522 51.6613 571.386 56.3044L579.897 51.0556C575.854 44.4987 569.94 39.5767 562.412 36.2309L558.351 45.3691ZM572.47 49.8146L556.09 63.2546L562.433 70.9854L578.813 57.5454L572.47 49.8146ZM563.391 64.3002C557.092 55.0774 547.535 50.64 535.602 50.64V60.64C544.761 60.64 550.978 63.8559 555.133 69.9398L563.391 64.3002ZM535.602 50.64C527.604 50.64 520.335 52.52 513.957 56.4118L519.166 64.9482C523.801 62.12 529.226 60.64 535.602 60.64V50.64ZM513.957 56.4118C507.674 60.2459 502.761 65.4875 499.268 72.0508L508.095 76.7492C510.762 71.7392 514.436 67.8341 519.166 64.9482L513.957 56.4118ZM499.238 72.1068C495.854 78.6644 494.202 85.9015 494.202 93.72H504.202C504.202 87.3518 505.536 81.709 508.125 76.6932L499.238 72.1068ZM494.202 93.72C494.202 102.423 496.991 109.846 502.915 115.421L509.768 108.139C506.172 104.754 504.202 100.137 504.202 93.72H494.202ZM502.989 115.489C509.027 120.947 517.135 123.36 526.642 123.36V113.36C518.788 113.36 513.362 111.386 509.694 108.071L502.989 115.489ZM526.642 123.36C538.386 123.36 548.398 119.005 556.35 110.417L549.013 103.623C542.965 110.155 535.618 113.36 526.642 113.36V123.36ZM549.11 110.519L562.55 124.239L569.693 117.241L556.253 103.521L549.11 110.519ZM562.33 117.481C553.766 127.444 541.469 132.68 524.682 132.68V142.68C543.734 142.68 559.064 136.622 569.913 123.999L562.33 117.481ZM595.437 38V33H591.338L590.534 37.0194L595.437 38ZM618.257 38L623.16 38.9806L624.356 33H618.257V38ZM598.657 136V141H602.756L603.56 136.981L598.657 136ZM575.837 136L570.934 135.019L569.738 141H575.837V136ZM595.437 43H618.257V33H595.437V43ZM613.354 37.0194L593.754 135.019L603.56 136.981L623.16 38.9806L613.354 37.0194ZM598.657 131H575.837V141H598.657V131ZM580.74 136.981L600.34 38.9806L590.534 37.0194L570.934 135.019L580.74 136.981ZM691.495 115L696.378 113.926L695.514 110H691.495V115ZM645.855 115V110H643.04L641.58 112.407L645.855 115ZM633.115 136V141H635.93L637.39 138.593L633.115 136ZM608.895 136L604.697 133.283L599.703 141H608.895V136ZM672.315 38V33H669.595L668.117 35.2835L672.315 38ZM694.715 38L699.57 36.8069L698.635 33H694.715V38ZM718.795 136V141H725.172L723.65 134.807L718.795 136ZM696.115 136L691.232 137.074L692.095 141H696.115V136ZM687.715 97.78V102.78H693.925L692.6 96.7126L687.715 97.78ZM679.455 59.98L684.34 58.9126L681.681 46.7479L675.188 57.3727L679.455 59.98ZM656.355 97.78L652.088 95.1728L647.44 102.78H656.355V97.78ZM691.495 110H645.855V120H691.495V110ZM641.58 112.407L628.84 133.407L637.39 138.593L650.13 117.593L641.58 112.407ZM633.115 131H608.895V141H633.115V131ZM613.093 138.717L676.513 40.7165L668.117 35.2835L604.697 133.283L613.093 138.717ZM672.315 43H694.715V33H672.315V43ZM689.859 39.1931L713.939 137.193L723.65 134.807L699.57 36.8069L689.859 39.1931ZM718.795 131H696.115V141H718.795V131ZM700.998 134.926L696.378 113.926L686.612 116.074L691.232 137.074L700.998 134.926ZM692.6 96.7126L684.34 58.9126L674.57 61.0474L682.83 98.8474L692.6 96.7126ZM675.188 57.3727L652.088 95.1728L660.621 100.387L683.721 62.5872L675.188 57.3727ZM656.355 102.78H687.715V92.78H656.355V102.78ZM748.562 38V33H744.463L743.659 37.0194L748.562 38ZM771.382 38L776.285 38.9839L777.486 33H771.382V38ZM755.422 117.52L750.52 116.536L749.319 122.52H755.422V117.52ZM804.562 117.52L809.461 118.522L810.689 112.52H804.562V117.52ZM800.782 136V141H804.863L805.681 137.002L800.782 136ZM728.962 136L724.059 135.019L722.863 141H728.962V136ZM748.562 43H771.382V33H748.562V43ZM766.48 37.0161L750.52 116.536L760.325 118.504L776.285 38.9839L766.48 37.0161ZM755.422 122.52H804.562V112.52H755.422V122.52ZM799.664 116.518L795.884 134.998L805.681 137.002L809.461 118.522L799.664 116.518ZM800.782 131H728.962V141H800.782V131ZM733.865 136.981L753.465 38.9806L743.659 37.0194L724.059 135.019L733.865 136.981ZM872.703 38V33H868.604L867.8 37.0194L872.703 38ZM939.483 43.04L937.365 47.5694L937.401 47.5859L937.436 47.6018L939.483 43.04ZM956.143 57.18L951.896 59.8184L951.91 59.8415L951.925 59.8644L956.143 57.18ZM954.323 108.98L958.615 111.546L958.621 111.535L958.627 111.525L954.323 108.98ZM932.763 129L935.035 133.454L935.044 133.449L935.053 133.445L932.763 129ZM853.103 136L848.2 135.019L847.004 141H853.103V136ZM921.563 112.62L924.028 116.97L924.04 116.964L924.051 116.957L921.563 112.62ZM934.583 99.32L938.995 101.673L939.003 101.658L939.011 101.643L934.583 99.32ZM931.923 62.92L928.615 66.6692L928.636 66.6876L928.657 66.7058L931.923 62.92ZM891.743 56.62V51.62H887.646L886.841 55.6372L891.743 56.62ZM879.563 117.38L874.661 116.397L873.461 122.38H879.563V117.38ZM872.703 43H913.723V33H872.703V43ZM913.723 43C923.162 43 930.99 44.5888 937.365 47.5694L941.601 38.5106C933.603 34.7712 924.258 33 913.723 33V43ZM937.436 47.6018C943.902 50.5034 948.647 54.5887 951.896 59.8184L960.39 54.5416C955.986 47.4513 949.623 42.1099 941.53 38.4782L937.436 47.6018ZM951.925 59.8644C955.266 65.1158 957.023 71.3899 957.023 78.88H967.023C967.023 69.7568 964.859 61.5642 960.361 54.4956L951.925 59.8644ZM957.023 78.88C957.023 89.4894 954.64 98.6213 950.019 106.435L958.627 111.525C964.272 101.979 967.023 91.044 967.023 78.88H957.023ZM950.031 106.414C945.396 114.168 938.918 120.205 930.473 124.555L935.053 133.445C945.088 128.275 952.983 120.965 958.615 111.546L950.031 106.414ZM930.491 124.546C922.16 128.797 912.369 131 900.983 131V141C913.677 141 925.073 138.537 935.035 133.454L930.491 124.546ZM900.983 131H853.103V141H900.983V131ZM858.006 136.981L877.606 38.9806L867.8 37.0194L848.2 135.019L858.006 136.981ZM901.683 122.38C910.037 122.38 917.546 120.643 924.028 116.97L919.098 108.27C914.38 110.943 908.636 112.38 901.683 112.38V122.38ZM924.051 116.957C930.53 113.24 935.55 108.131 938.995 101.673L930.171 96.9671C927.642 101.709 923.983 105.467 919.075 108.283L924.051 116.957ZM939.011 101.643C942.411 95.1611 944.063 87.9574 944.063 80.14H934.063C934.063 86.5093 932.728 92.0922 930.155 96.9972L939.011 101.643ZM944.063 80.14C944.063 71.5902 941.244 64.3581 935.189 59.1342L928.657 66.7058C932.122 69.6952 934.063 73.9431 934.063 80.14H944.063ZM935.231 59.1708C929.234 53.8797 920.961 51.62 911.203 51.62V61.62C919.552 61.62 925.091 63.5603 928.615 66.6692L935.231 59.1708ZM911.203 51.62H891.743V61.62H911.203V51.62ZM886.841 55.6372L874.661 116.397L884.465 118.363L896.645 57.6027L886.841 55.6372ZM879.563 122.38H901.683V112.38H879.563V122.38ZM1007.27 56.2V51.2H1003.16L1002.36 55.2318L1007.27 56.2ZM1003.07 77.48L998.162 76.5118L996.984 82.48H1003.07V77.48ZM1048.57 77.48L1053.47 78.4531L1054.66 72.48H1048.57V77.48ZM1045.07 95.12V100.12H1049.17L1049.97 96.0931L1045.07 95.12ZM999.427 95.12V90.12H995.318L994.522 94.1511L999.427 95.12ZM994.947 117.8L990.042 116.831L988.863 122.8H994.947V117.8ZM1048.43 117.8L1053.32 118.817L1054.57 112.8H1048.43V117.8ZM1044.65 136V141H1048.72L1049.54 137.017L1044.65 136ZM968.767 136L963.864 135.019L962.668 141H968.767V136ZM988.367 38V33H984.268L983.464 37.0194L988.367 38ZM1062.43 38L1067.32 39.0168L1068.57 33H1062.43V38ZM1058.65 56.2V61.2H1062.72L1063.54 57.2168L1058.65 56.2ZM1002.36 55.2318L998.162 76.5118L1007.97 78.4482L1012.17 57.1682L1002.36 55.2318ZM1003.07 82.48H1048.57V72.48H1003.07V82.48ZM1043.66 76.5069L1040.16 94.1469L1049.97 96.0931L1053.47 78.4531L1043.66 76.5069ZM1045.07 90.12H999.427V100.12H1045.07V90.12ZM994.522 94.1511L990.042 116.831L999.852 118.769L1004.33 96.0889L994.522 94.1511ZM994.947 122.8H1048.43V112.8H994.947V122.8ZM1043.53 116.783L1039.75 134.983L1049.54 137.017L1053.32 118.817L1043.53 116.783ZM1044.65 131H968.767V141H1044.65V131ZM973.67 136.981L993.27 38.9806L983.464 37.0194L963.864 135.019L973.67 136.981ZM988.367 43H1062.43V33H988.367V43ZM1057.53 36.9832L1053.75 55.1832L1063.54 57.2168L1067.32 39.0168L1057.53 36.9832ZM1058.65 51.2H1007.27V61.2H1058.65V51.2ZM1132.41 115L1137.3 113.926L1136.43 110H1132.41V115ZM1086.77 115V110H1083.96L1082.5 112.407L1086.77 115ZM1074.03 136V141H1076.85L1078.31 138.593L1074.03 136ZM1049.81 136L1045.62 133.283L1040.62 141H1049.81V136ZM1113.23 38V33H1110.51L1109.04 35.2835L1113.23 38ZM1135.63 38L1140.49 36.8069L1139.55 33H1135.63V38ZM1159.71 136V141H1166.09L1164.57 134.807L1159.71 136ZM1137.03 136L1132.15 137.074L1133.01 141H1137.03V136ZM1128.63 97.78V102.78H1134.84L1133.52 96.7126L1128.63 97.78ZM1120.37 59.98L1125.26 58.9126L1122.6 46.7479L1116.11 57.3727L1120.37 59.98ZM1097.27 97.78L1093.01 95.1728L1088.36 102.78H1097.27V97.78ZM1132.41 110H1086.77V120H1132.41V110ZM1082.5 112.407L1069.76 133.407L1078.31 138.593L1091.05 117.593L1082.5 112.407ZM1074.03 131H1049.81V141H1074.03V131ZM1054.01 138.717L1117.43 40.7165L1109.04 35.2835L1045.62 133.283L1054.01 138.717ZM1113.23 43H1135.63V33H1113.23V43ZM1130.78 39.1931L1154.86 137.193L1164.57 134.807L1140.49 36.8069L1130.78 39.1931ZM1159.71 131H1137.03V141H1159.71V131ZM1141.92 134.926L1137.3 113.926L1127.53 116.074L1132.15 137.074L1141.92 134.926ZM1133.52 96.7126L1125.26 58.9126L1115.49 61.0474L1123.75 98.8474L1133.52 96.7126ZM1116.11 57.3727L1093.01 95.1728L1101.54 100.387L1124.64 62.5872L1116.11 57.3727ZM1097.27 102.78H1128.63V92.78H1097.27V102.78ZM1189.48 38V33H1185.38L1184.58 37.0194L1189.48 38ZM1212.3 38L1217.2 38.9839L1218.4 33H1212.3V38ZM1196.34 117.52L1191.44 116.536L1190.24 122.52H1196.34V117.52ZM1245.48 117.52L1250.38 118.522L1251.61 112.52H1245.48V117.52ZM1241.7 136V141H1245.78L1246.6 137.002L1241.7 136ZM1169.88 136L1164.98 135.019L1163.78 141H1169.88V136ZM1189.48 43H1212.3V33H1189.48V43ZM1207.4 37.0161L1191.44 116.536L1201.24 118.504L1217.2 38.9839L1207.4 37.0161ZM1196.34 122.52H1245.48V112.52H1196.34V122.52ZM1240.58 116.518L1236.8 134.998L1246.6 137.002L1250.38 118.522L1240.58 116.518ZM1241.7 131H1169.88V141H1241.7V131ZM1174.78 136.981L1194.38 38.9806L1184.58 37.0194L1164.98 135.019L1174.78 136.981ZM1248.65 126.76L1244.22 124.425L1242.22 128.226L1245.67 130.781L1248.65 126.76ZM1257.89 109.26L1260.83 105.22L1256.16 101.815L1253.46 106.925L1257.89 109.26ZM1273.01 116.82L1274.52 112.053L1274.52 112.053L1273.01 116.82ZM1305.07 116.4L1307.52 120.755L1307.52 120.755L1305.07 116.4ZM1306.19 101.42L1303.78 105.804L1303.84 105.834L1303.89 105.863L1306.19 101.42ZM1292.33 96.38L1290.91 101.177L1290.95 101.186L1290.98 101.196L1292.33 96.38ZM1276.79 91.06L1274.76 95.6334L1274.81 95.6533L1274.85 95.6722L1276.79 91.06ZM1266.29 83.22L1262.45 86.4311L1262.48 86.4611L1262.5 86.4908L1266.29 83.22ZM1267.41 52L1263.39 49.0239L1263.37 49.0481L1263.35 49.0725L1267.41 52ZM1283.09 40.38L1281.24 35.7332L1281.23 35.7376L1281.22 35.7421L1283.09 40.38ZM1325.51 38.56L1324.27 43.4061L1324.31 43.4154L1324.35 43.424L1325.51 38.56ZM1340.63 44.72L1345.11 46.9271L1347.08 42.9301L1343.33 40.5171L1340.63 44.72ZM1332.09 62.08L1329.24 66.191L1334.01 69.494L1336.57 64.2871L1332.09 62.08ZM1319.77 56.48L1318.39 61.2876L1318.44 61.3006L1318.48 61.3128L1319.77 56.48ZM1290.23 57.88L1287.65 53.5925L1287.65 53.5925L1290.23 57.88ZM1287.01 72.02L1283.58 75.661L1283.64 75.716L1283.7 75.7692L1287.01 72.02ZM1293.03 75.52L1291.23 80.1867L1291.31 80.2172L1291.39 80.2449L1293.03 75.52ZM1303.25 78.6L1301.91 83.4191L1301.93 83.424L1301.95 83.4288L1303.25 78.6ZM1318.65 83.78L1316.62 88.3534L1316.67 88.3733L1316.71 88.3922L1318.65 83.78ZM1328.87 91.34L1325.02 94.5409L1325.07 94.5988L1325.12 94.6552L1328.87 91.34ZM1327.61 122L1331.6 125.012L1331.61 124.994L1331.62 124.976L1327.61 122ZM1311.79 133.62L1313.63 138.267L1313.66 138.256L1313.69 138.245L1311.79 133.62ZM1287.99 132.68C1280.69 132.68 1273.74 131.713 1267.12 129.797L1264.34 139.403C1271.9 141.593 1279.79 142.68 1287.99 142.68V132.68ZM1267.12 129.797C1260.39 127.85 1255.29 125.453 1251.62 122.739L1245.67 130.781C1250.59 134.413 1256.88 137.243 1264.34 139.403L1267.12 129.797ZM1253.07 129.095L1262.31 111.595L1253.46 106.925L1244.22 124.425L1253.07 129.095ZM1254.94 113.3C1259.88 116.903 1265.41 119.66 1271.5 121.587L1274.52 112.053C1269.4 110.433 1264.85 108.15 1260.83 105.22L1254.94 113.3ZM1271.5 121.587C1277.58 123.515 1283.83 124.48 1290.23 124.48V114.48C1284.86 114.48 1279.63 113.672 1274.52 112.053L1271.5 121.587ZM1290.23 124.48C1296.94 124.48 1302.85 123.39 1307.52 120.755L1302.61 112.045C1300 113.517 1296.01 114.48 1290.23 114.48V124.48ZM1307.52 120.755C1312.4 118.004 1315.53 113.705 1315.53 108H1305.53C1305.53 109.389 1305.01 110.69 1302.61 112.045L1307.52 120.755ZM1315.53 108C1315.53 105.678 1314.93 103.428 1313.61 101.432C1312.32 99.4682 1310.51 98.0236 1308.48 96.9769L1303.89 105.863C1304.76 106.31 1305.12 106.708 1305.27 106.938C1305.4 107.136 1305.53 107.429 1305.53 108H1315.53ZM1308.59 97.0359C1305.17 95.1625 1300.1 93.3601 1293.67 91.5644L1290.98 101.196C1297.25 102.947 1301.41 104.504 1303.78 105.804L1308.59 97.0359ZM1293.74 91.5832C1287.49 89.7447 1282.5 88.0304 1278.72 86.4478L1274.85 95.6722C1279.1 97.4496 1284.47 99.2819 1290.91 101.177L1293.74 91.5832ZM1278.81 86.4866C1275.5 85.0242 1272.59 82.8668 1270.07 79.9492L1262.5 86.4908C1265.95 90.4798 1270.05 93.5492 1274.76 95.6334L1278.81 86.4866ZM1270.12 80.0089C1268.16 77.6723 1266.95 74.3367 1266.95 69.5H1256.95C1256.95 76.0499 1258.62 81.861 1262.45 86.4311L1270.12 80.0089ZM1266.95 69.5C1266.95 63.851 1268.48 59.0577 1271.46 54.9274L1263.35 49.0725C1259.06 55.0223 1256.95 61.8957 1256.95 69.5H1266.95ZM1271.42 54.9761C1274.53 50.7869 1278.95 47.4342 1284.95 45.0179L1281.22 35.7421C1273.78 38.7392 1267.75 43.1331 1263.39 49.0239L1271.42 54.9761ZM1284.93 45.0268C1291.04 42.599 1298.28 41.32 1306.75 41.32V31.32C1297.29 31.32 1288.76 32.7477 1281.24 35.7332L1284.93 45.0268ZM1306.75 41.32C1313 41.32 1318.83 42.0239 1324.27 43.4061L1326.74 33.7138C1320.42 32.1094 1313.75 31.32 1306.75 31.32V41.32ZM1324.35 43.424C1329.79 44.7196 1334.28 46.5793 1337.92 48.9229L1343.33 40.5171C1338.57 37.4473 1332.98 35.2004 1326.66 33.696L1324.35 43.424ZM1336.14 42.5129L1327.6 59.8729L1336.57 64.2871L1345.11 46.9271L1336.14 42.5129ZM1334.93 57.969C1330.78 55.0978 1326.14 52.9986 1321.05 51.6472L1318.48 61.3128C1322.54 62.3881 1326.11 64.0222 1329.24 66.191L1334.93 57.969ZM1321.14 51.6724C1316.1 50.233 1310.88 49.52 1305.49 49.52V59.52C1309.99 59.52 1314.28 60.1136 1318.39 61.2876L1321.14 51.6724ZM1305.49 49.52C1298.54 49.52 1292.45 50.7144 1287.65 53.5925L1292.8 62.1675C1295.47 60.5656 1299.55 59.52 1305.49 59.52V49.52ZM1287.65 53.5925C1282.81 56.4969 1279.63 60.8372 1279.63 66.56H1289.63C1289.63 65.1895 1290.17 63.7431 1292.8 62.1675L1287.65 53.5925ZM1279.63 66.56C1279.63 70.1086 1281.01 73.2389 1283.58 75.661L1290.43 68.379C1289.83 67.8145 1289.63 67.3047 1289.63 66.56H1279.63ZM1283.7 75.7692C1285.82 77.641 1288.37 79.0871 1291.23 80.1867L1294.82 70.8533C1292.83 70.0862 1291.37 69.199 1290.31 68.2708L1283.7 75.7692ZM1291.39 80.2449C1293.96 81.1361 1297.49 82.1954 1301.91 83.4191L1304.58 73.7809C1300.23 72.5779 1296.94 71.5839 1294.66 70.7951L1291.39 80.2449ZM1301.95 83.4288C1308.06 85.0704 1312.93 86.7197 1316.62 88.3534L1320.67 79.2066C1316.34 77.2936 1310.94 75.4896 1304.54 73.7712L1301.95 83.4288ZM1316.71 88.3922C1319.98 89.7603 1322.74 91.7946 1325.02 94.5409L1332.71 88.1391C1329.4 84.1654 1325.33 81.1596 1320.58 79.1678L1316.71 88.3922ZM1325.12 94.6552C1327.02 96.802 1328.21 99.8626 1328.21 104.36H1338.21C1338.21 98.0307 1336.49 92.4113 1332.61 88.0248L1325.12 94.6552ZM1328.21 104.36C1328.21 110.09 1326.64 114.908 1323.59 119.024L1331.62 124.976C1336.04 119.012 1338.21 112.07 1338.21 104.36H1328.21ZM1323.61 118.988C1320.52 123.095 1316.03 126.471 1309.89 128.995L1313.69 138.245C1321.17 135.169 1327.23 130.798 1331.6 125.012L1323.61 118.988ZM1309.94 128.973C1303.83 131.399 1296.55 132.68 1287.99 132.68V142.68C1297.53 142.68 1306.11 141.255 1313.63 138.267L1309.94 128.973ZM1421.39 56.2V51.2H1417.29L1416.49 55.2194L1421.39 56.2ZM1416.21 82.1L1411.31 81.1194L1410.11 87.1H1416.21V82.1ZM1461.71 82.1L1466.61 83.1168L1467.86 77.1H1461.71V82.1ZM1457.93 100.3V105.3H1462L1462.83 101.317L1457.93 100.3ZM1412.71 100.3V95.3H1408.61L1407.81 99.3194L1412.71 100.3ZM1405.57 136V141H1409.67L1410.47 136.981L1405.57 136ZM1382.75 136L1377.85 135.019L1376.65 141H1382.75V136ZM1402.35 38V33H1398.25L1397.45 37.0194L1402.35 38ZM1476.41 38L1481.31 39.0168L1482.56 33H1476.41V38ZM1472.63 56.2V61.2H1476.7L1477.53 57.2168L1472.63 56.2ZM1416.49 55.2194L1411.31 81.1194L1421.11 83.0806L1426.29 57.1806L1416.49 55.2194ZM1416.21 87.1H1461.71V77.1H1416.21V87.1ZM1456.82 81.0832L1453.04 99.2832L1462.83 101.317L1466.61 83.1168L1456.82 81.0832ZM1457.93 95.3H1412.71V105.3H1457.93V95.3ZM1407.81 99.3194L1400.67 135.019L1410.47 136.981L1417.61 101.281L1407.81 99.3194ZM1405.57 131H1382.75V141H1405.57V131ZM1387.65 136.981L1407.25 38.9806L1397.45 37.0194L1377.85 135.019L1387.65 136.981ZM1402.35 43H1476.41V33H1402.35V43ZM1471.52 36.9832L1467.74 55.1832L1477.53 57.2168L1481.31 39.0168L1471.52 36.9832ZM1472.63 51.2H1421.39V61.2H1472.63V51.2ZM1496.55 132.36L1498.76 127.876L1498.76 127.876L1496.55 132.36ZM1480.03 117.38L1484.33 114.826L1484.33 114.826L1480.03 117.38ZM1481.85 65.16L1477.51 62.6744L1477.51 62.6818L1477.5 62.6892L1481.85 65.16ZM1503.27 44.02L1500.84 39.6492L1500.83 39.6545L1500.82 39.6597L1503.27 44.02ZM1560.39 41.64L1558.18 46.1237L1558.18 46.1237L1560.39 41.64ZM1574.95 108.98L1570.61 106.494L1570.61 106.502L1570.6 106.509L1574.95 108.98ZM1553.53 129.98L1551.1 125.609L1551.09 125.614L1551.08 125.62L1553.53 129.98ZM1542.89 113.18L1540.2 108.965L1540.2 108.965L1542.89 113.18ZM1555.35 99.32L1559.82 101.556L1559.82 101.556L1555.35 99.32ZM1552.69 62.36L1549.23 65.9669L1549.24 65.9851L1549.26 66.0031L1552.69 62.36ZM1501.59 74.68L1497.12 72.4439L1497.12 72.4439L1501.59 74.68ZM1504.25 111.78L1500.79 115.387L1500.8 115.405L1500.82 115.423L1504.25 111.78ZM1522.03 132.68C1512.83 132.68 1505.12 131.016 1498.76 127.876L1494.34 136.844C1502.35 140.797 1511.63 142.68 1522.03 142.68V132.68ZM1498.76 127.876C1492.38 124.726 1487.62 120.376 1484.33 114.826L1475.73 119.934C1480.09 127.264 1486.35 132.9 1494.34 136.844L1498.76 127.876ZM1484.33 114.826C1481.01 109.249 1479.29 102.733 1479.29 95.12H1469.29C1469.29 104.307 1471.39 112.631 1475.73 119.934L1484.33 114.826ZM1479.29 95.12C1479.29 84.8003 1481.62 75.6783 1486.2 67.6308L1477.5 62.6892C1472 72.375 1469.29 83.2264 1469.29 95.12H1479.29ZM1486.19 67.6456C1490.86 59.4828 1497.34 53.0785 1505.72 48.3803L1500.82 39.6597C1490.9 45.2282 1483.1 52.9172 1477.51 62.6744L1486.19 67.6456ZM1505.7 48.3908C1514.11 43.7183 1523.8 41.32 1534.91 41.32V31.32C1522.31 31.32 1510.91 34.055 1500.84 39.6492L1505.7 48.3908ZM1534.91 41.32C1544.11 41.32 1551.81 42.984 1558.18 46.1237L1562.6 37.1563C1554.59 33.2027 1545.31 31.32 1534.91 31.32V41.32ZM1558.18 46.1237C1564.56 49.2737 1569.31 53.6242 1572.61 59.1741L1581.21 54.0659C1576.85 46.7358 1570.59 41.0996 1562.6 37.1563L1558.18 46.1237ZM1572.61 59.1741C1575.92 64.7506 1577.65 71.2673 1577.65 78.88H1587.65C1587.65 69.6927 1585.55 61.3694 1581.21 54.0659L1572.61 59.1741ZM1577.65 78.88C1577.65 89.1827 1575.28 98.348 1570.61 106.494L1579.29 111.466C1584.89 101.692 1587.65 90.7906 1587.65 78.88H1577.65ZM1570.6 106.509C1566.03 114.549 1559.57 120.904 1551.1 125.609L1555.96 134.351C1565.97 128.789 1573.79 121.145 1579.3 111.451L1570.6 106.509ZM1551.08 125.62C1542.78 130.281 1533.14 132.68 1522.03 132.68V142.68C1534.63 142.68 1545.99 139.945 1555.98 134.34L1551.08 125.62ZM1523.99 123.36C1532.01 123.36 1539.27 121.421 1545.58 117.395L1540.2 108.965C1535.68 111.846 1530.34 113.36 1523.99 113.36V123.36ZM1545.58 117.395C1551.76 113.452 1556.53 108.145 1559.82 101.556L1550.88 97.0839C1548.38 102.068 1544.84 106.002 1540.2 108.965L1545.58 117.395ZM1559.82 101.556C1563.09 95.0193 1564.69 87.8513 1564.69 80.14H1554.69C1554.69 86.4287 1553.39 92.0474 1550.88 97.0839L1559.82 101.556ZM1564.69 80.14C1564.69 71.5431 1561.95 64.2068 1556.11 58.7169L1549.26 66.0031C1552.76 69.2865 1554.69 73.8035 1554.69 80.14H1564.69ZM1556.15 58.7531C1550.29 53.127 1542.32 50.64 1532.95 50.64V60.64C1540.57 60.64 1545.75 62.633 1549.23 65.9669L1556.15 58.7531ZM1532.95 50.64C1524.93 50.64 1517.67 52.5793 1511.36 56.6047L1516.74 65.0353C1521.25 62.154 1526.6 60.64 1532.95 60.64V50.64ZM1511.36 56.6047C1505.18 60.5483 1500.41 65.8549 1497.12 72.4439L1506.06 76.9161C1508.55 71.9318 1512.09 67.9984 1516.74 65.0353L1511.36 56.6047ZM1497.12 72.4439C1493.85 78.9807 1492.25 86.1487 1492.25 93.86H1502.25C1502.25 87.5713 1503.54 81.9526 1506.06 76.9161L1497.12 72.4439ZM1492.25 93.86C1492.25 102.459 1494.98 109.816 1500.79 115.387L1507.71 108.173C1504.18 104.784 1502.25 100.194 1502.25 93.86H1492.25ZM1500.82 115.423C1506.69 120.935 1514.65 123.36 1523.99 123.36V113.36C1516.34 113.36 1511.14 111.399 1507.67 108.137L1500.82 115.423ZM1679.77 91.9L1675.79 88.8818L1675.79 88.8818L1679.77 91.9ZM1659.19 105.76L1657.72 100.982L1651.79 102.813L1654.84 108.219L1659.19 105.76ZM1676.27 136V141H1684.84L1680.63 133.541L1676.27 136ZM1652.33 136L1647.97 138.447L1649.41 141H1652.33V136ZM1636.93 108.56L1641.29 106.113L1639.86 103.56H1636.93V108.56ZM1617.61 108.56V103.56H1613.51L1612.71 107.584L1617.61 108.56ZM1612.15 136V141H1616.26L1617.06 136.976L1612.15 136ZM1589.33 136L1584.43 135.019L1583.23 141H1589.33V136ZM1608.93 38V33H1604.83L1604.03 37.0194L1608.93 38ZM1677.11 45.98L1674.01 49.9002L1674.01 49.9002L1677.11 45.98ZM1657.93 85.32L1654.76 81.4579L1654.74 81.4754L1654.72 81.4932L1657.93 85.32ZM1659.47 59.98L1662.44 55.9517L1662.44 55.9517L1659.47 59.98ZM1627.97 56.48V51.48H1623.88L1623.07 55.4917L1627.97 56.48ZM1621.11 90.5L1616.21 89.5117L1615 95.5H1621.11V90.5ZM1682.19 68.38C1682.19 76.5702 1680 83.3177 1675.79 88.8818L1683.76 94.9182C1689.44 87.4156 1692.19 78.4831 1692.19 68.38H1682.19ZM1675.79 88.8818C1671.55 94.4806 1665.62 98.5455 1657.72 100.982L1660.67 110.538C1670.32 107.561 1678.11 102.386 1683.76 94.9182L1675.79 88.8818ZM1654.84 108.219L1671.92 138.459L1680.63 133.541L1663.55 103.301L1654.84 108.219ZM1676.27 131H1652.33V141H1676.27V131ZM1656.69 133.553L1641.29 106.113L1632.57 111.007L1647.97 138.447L1656.69 133.553ZM1636.93 103.56H1617.61V113.56H1636.93V103.56ZM1612.71 107.584L1607.25 135.024L1617.06 136.976L1622.52 109.536L1612.71 107.584ZM1612.15 131H1589.33V141H1612.15V131ZM1594.24 136.981L1613.84 38.9806L1604.03 37.0194L1584.43 135.019L1594.24 136.981ZM1608.93 43H1648.83V33H1608.93V43ZM1648.83 43C1660.3 43 1668.48 45.5188 1674.01 49.9002L1680.22 42.0598C1672.31 35.8012 1661.64 33 1648.83 33V43ZM1674.01 49.9002C1679.38 54.1481 1682.19 60.0833 1682.19 68.38H1692.19C1692.19 57.45 1688.29 48.4519 1680.22 42.0598L1674.01 49.9002ZM1640.43 95.5C1648.7 95.5 1655.84 93.6161 1661.15 89.1468L1654.72 81.4932C1651.82 83.9306 1647.29 85.5 1640.43 85.5V95.5ZM1661.11 89.1821C1666.68 84.6003 1669.23 78.1093 1669.23 70.48H1659.23C1659.23 75.7307 1657.59 79.133 1654.76 81.4579L1661.11 89.1821ZM1669.23 70.48C1669.23 64.5558 1667.14 59.4085 1662.44 55.9517L1656.51 64.0082C1658.16 65.2182 1659.23 67.0709 1659.23 70.48H1669.23ZM1662.44 55.9517C1658.07 52.7447 1652.34 51.48 1645.89 51.48V61.48C1651.21 61.48 1654.53 62.5486 1656.51 64.0083L1662.44 55.9517ZM1645.89 51.48H1627.97V61.48H1645.89V51.48ZM1623.07 55.4917L1616.21 89.5117L1626.01 91.4883L1632.87 57.4683L1623.07 55.4917ZM1621.11 95.5H1640.43V85.5H1621.11V95.5ZM1785.69 101.98L1781.78 98.8649L1781.02 99.817L1780.79 101.011L1785.69 101.98ZM1778.97 136V141H1783.08L1783.88 136.969L1778.97 136ZM1756.29 136L1751.38 135.038L1750.22 141H1756.29V136ZM1763.15 101L1768.06 101.962L1768.34 100.513L1767.79 99.143L1763.15 101ZM1737.95 38V33H1730.57L1733.31 39.8569L1737.95 38ZM1760.63 38L1765.27 36.1405L1764.01 33H1760.63V38ZM1778.13 81.68L1773.49 83.5395L1776.67 91.4744L1782.03 84.8141L1778.13 81.68ZM1813.27 38V33H1810.88L1809.38 34.8659L1813.27 38ZM1836.65 38L1840.56 41.1151L1847.03 33H1836.65V38ZM1780.79 101.011L1774.07 135.031L1783.88 136.969L1790.6 102.949L1780.79 101.011ZM1778.97 131H1756.29V141H1778.97V131ZM1761.2 136.962L1768.06 101.962L1758.24 100.038L1751.38 135.038L1761.2 136.962ZM1767.79 99.143L1742.59 36.143L1733.31 39.8569L1758.51 102.857L1767.79 99.143ZM1737.95 43H1760.63V33H1737.95V43ZM1755.99 39.8595L1773.49 83.5395L1782.77 79.8205L1765.27 36.1405L1755.99 39.8595ZM1782.03 84.8141L1817.17 41.1341L1809.38 34.8659L1774.24 78.5459L1782.03 84.8141ZM1813.27 43H1836.65V33H1813.27V43ZM1832.74 34.8849L1781.78 98.8649L1789.6 105.095L1840.56 41.1151L1832.74 34.8849ZM1847.64 132.36L1849.85 127.876L1849.85 127.876L1847.64 132.36ZM1831.12 117.38L1835.42 114.826L1835.42 114.826L1831.12 117.38ZM1832.94 65.16L1828.6 62.6744L1828.6 62.6818L1828.6 62.6892L1832.94 65.16ZM1854.36 44.02L1851.93 39.6492L1851.92 39.6545L1851.92 39.6597L1854.36 44.02ZM1911.48 41.64L1909.27 46.1237L1909.27 46.1237L1911.48 41.64ZM1926.04 108.98L1921.7 106.494L1921.7 106.502L1921.7 106.509L1926.04 108.98ZM1904.62 129.98L1902.19 125.609L1902.18 125.614L1902.18 125.62L1904.62 129.98ZM1893.98 113.18L1891.29 108.965L1891.29 108.965L1893.98 113.18ZM1906.44 99.32L1910.91 101.556L1910.91 101.556L1906.44 99.32ZM1903.78 62.36L1900.32 65.9669L1900.34 65.9851L1900.36 66.0031L1903.78 62.36ZM1852.68 74.68L1848.21 72.4439L1848.21 72.4439L1852.68 74.68ZM1855.34 111.78L1851.88 115.387L1851.9 115.405L1851.92 115.423L1855.34 111.78ZM1873.12 132.68C1863.92 132.68 1856.22 131.016 1849.85 127.876L1845.43 136.844C1853.44 140.797 1862.72 142.68 1873.12 142.68V132.68ZM1849.85 127.876C1843.47 124.726 1838.72 120.376 1835.42 114.826L1826.82 119.934C1831.18 127.264 1837.44 132.9 1845.43 136.844L1849.85 127.876ZM1835.42 114.826C1832.11 109.249 1830.38 102.733 1830.38 95.12H1820.38C1820.38 104.307 1822.48 112.631 1826.82 119.934L1835.42 114.826ZM1830.38 95.12C1830.38 84.8003 1832.71 75.6783 1837.29 67.6308L1828.6 62.6892C1823.09 72.375 1820.38 83.2264 1820.38 95.12H1830.38ZM1837.28 67.6456C1841.96 59.4828 1848.44 53.0785 1856.81 48.3803L1851.92 39.6597C1841.99 45.2282 1834.19 52.9172 1828.6 62.6744L1837.28 67.6456ZM1856.79 48.3908C1865.2 43.7183 1874.89 41.32 1886 41.32V31.32C1873.4 31.32 1862 34.055 1851.93 39.6492L1856.79 48.3908ZM1886 41.32C1895.2 41.32 1902.91 42.984 1909.27 46.1237L1913.69 37.1563C1905.68 33.2027 1896.4 31.32 1886 31.32V41.32ZM1909.27 46.1237C1915.65 49.2737 1920.41 53.6242 1923.7 59.1741L1932.3 54.0659C1927.95 46.7358 1921.69 41.0996 1913.69 37.1563L1909.27 46.1237ZM1923.7 59.1741C1927.02 64.7506 1928.74 71.2673 1928.74 78.88H1938.74C1938.74 69.6927 1936.64 61.3694 1932.3 54.0659L1923.7 59.1741ZM1928.74 78.88C1928.74 89.1827 1926.37 98.348 1921.7 106.494L1930.38 111.466C1935.98 101.692 1938.74 90.7906 1938.74 78.88H1928.74ZM1921.7 106.509C1917.13 114.549 1910.66 120.904 1902.19 125.609L1907.05 134.351C1917.06 128.789 1924.88 121.145 1930.39 111.451L1921.7 106.509ZM1902.18 125.62C1893.87 130.281 1884.23 132.68 1873.12 132.68V142.68C1885.72 142.68 1897.08 139.945 1907.07 134.34L1902.18 125.62ZM1875.08 123.36C1883.1 123.36 1890.36 121.421 1896.67 117.395L1891.29 108.965C1886.78 111.846 1881.43 113.36 1875.08 113.36V123.36ZM1896.67 117.395C1902.85 113.452 1907.62 108.145 1910.91 101.556L1901.97 97.0839C1899.48 102.068 1895.94 106.002 1891.29 108.965L1896.67 117.395ZM1910.91 101.556C1914.18 95.0193 1915.78 87.8513 1915.78 80.14H1905.78C1905.78 86.4287 1904.49 92.0474 1901.97 97.0839L1910.91 101.556ZM1915.78 80.14C1915.78 71.5431 1913.05 64.2068 1907.21 58.7169L1900.36 66.0031C1903.85 69.2865 1905.78 73.8035 1905.78 80.14H1915.78ZM1907.24 58.7531C1901.38 53.127 1893.41 50.64 1884.04 50.64V60.64C1891.66 60.64 1896.85 62.633 1900.32 65.9669L1907.24 58.7531ZM1884.04 50.64C1876.02 50.64 1868.76 52.5793 1862.45 56.6047L1867.83 65.0353C1872.35 62.154 1877.69 60.64 1884.04 60.64V50.64ZM1862.45 56.6047C1856.27 60.5483 1851.5 65.8549 1848.21 72.4439L1857.15 76.9161C1859.65 71.9318 1863.19 67.9984 1867.83 65.0353L1862.45 56.6047ZM1848.21 72.4439C1844.94 78.9807 1843.34 86.1487 1843.34 93.86H1853.34C1853.34 87.5713 1854.64 81.9526 1857.15 76.9161L1848.21 72.4439ZM1843.34 93.86C1843.34 102.459 1846.08 109.816 1851.88 115.387L1858.8 108.173C1855.27 104.784 1853.34 100.194 1853.34 93.86H1843.34ZM1851.92 115.423C1857.78 120.935 1865.74 123.36 1875.08 123.36V113.36C1867.44 113.36 1862.24 111.399 1858.77 108.137L1851.92 115.423ZM1957.65 128.58L1954.34 132.334L1954.36 132.346L1954.37 132.358L1957.65 128.58ZM1948.27 92.88L1943.36 91.9042L1943.36 91.9243L1943.36 91.9444L1948.27 92.88ZM1959.19 38V33H1955.08L1954.28 37.0242L1959.19 38ZM1982.01 38L1986.91 38.983L1988.11 33H1982.01V38ZM1971.09 92.46L1966.18 91.477L1966.18 91.5212L1966.17 91.5656L1971.09 92.46ZM1975.01 114.02L1971.58 117.661L1971.64 117.713L1971.69 117.763L1975.01 114.02ZM2005.67 112.2L2009.2 115.736L2009.2 115.736L2005.67 112.2ZM2014.63 92.46L2019.52 93.4697L2019.53 93.4564L2019.53 93.443L2014.63 92.46ZM2025.55 38V33H2021.45L2020.64 37.017L2025.55 38ZM2047.81 38L2052.71 38.9711L2053.89 33H2047.81V38ZM2036.75 93.86L2041.65 94.8616L2041.65 94.8464L2041.65 94.8311L2036.75 93.86ZM1986.63 132.68C1975.11 132.68 1966.75 129.852 1960.92 124.802L1954.37 132.358C1962.55 139.441 1973.51 142.68 1986.63 142.68V132.68ZM1960.95 124.826C1955.19 119.755 1952.15 112.808 1952.15 103.38H1942.15C1942.15 115.232 1946.11 125.085 1954.34 132.334L1960.95 124.826ZM1952.15 103.38C1952.15 100.69 1952.47 97.5123 1953.18 93.8156L1943.36 91.9444C1942.57 96.0877 1942.15 99.9099 1942.15 103.38H1952.15ZM1953.17 93.8558L1964.09 38.9758L1954.28 37.0242L1943.36 91.9042L1953.17 93.8558ZM1959.19 43H1982.01V33H1959.19V43ZM1977.1 37.017L1966.18 91.477L1975.99 93.443L1986.91 38.983L1977.1 37.017ZM1966.17 91.5656C1965.57 94.8607 1965.25 97.9218 1965.25 100.72H1975.25C1975.25 98.6649 1975.49 96.2193 1976.01 93.3544L1966.17 91.5656ZM1965.25 100.72C1965.25 107.478 1967.09 113.434 1971.58 117.661L1978.43 110.379C1976.58 108.633 1975.25 105.722 1975.25 100.72H1965.25ZM1971.69 117.763C1976.19 121.745 1982.27 123.36 1989.15 123.36V113.36C1983.71 113.36 1980.36 112.081 1978.32 110.277L1971.69 117.763ZM1989.15 123.36C1997.11 123.36 2003.98 120.955 2009.2 115.736L2002.13 108.664C1999.14 111.659 1995 113.36 1989.15 113.36V123.36ZM2009.2 115.736C2014.3 110.641 2017.57 102.962 2019.52 93.4697L2009.73 91.4503C2007.95 100.065 2005.25 105.546 2002.13 108.664L2009.2 115.736ZM2019.53 93.443L2030.45 38.983L2020.64 37.017L2009.72 91.477L2019.53 93.443ZM2025.55 43H2047.81V33H2025.55V43ZM2042.9 37.0289L2031.84 92.8889L2041.65 94.8311L2052.71 38.9711L2042.9 37.0289ZM2031.85 92.8584C2029.01 106.759 2023.73 116.59 2016.45 122.961C2009.21 129.291 1999.43 132.68 1986.63 132.68V142.68C2001.26 142.68 2013.56 138.765 2023.03 130.489C2032.45 122.254 2038.51 110.175 2041.65 94.8616L2031.85 92.8584Z" fill="#FF5348"/>
<path d="M60 33.0902L71.0932 67.2315L71.6545 68.959H73.4708H109.369L80.3268 90.0595L78.8574 91.1271L79.4186 92.8546L90.5118 126.996L61.4695 105.895L60 104.828L58.5305 105.895L29.4882 126.996L40.5814 92.8546L41.1427 91.1271L39.6732 90.0595L10.6308 68.959H46.5292H48.3455L48.9068 67.2315L60 33.0902Z" fill="white" stroke="#FF5348" stroke-width="5"/>
<path d="M2172 33.0902L2183.09 67.2315L2183.65 68.959H2185.47H2221.37L2192.33 90.0595L2190.86 91.1271L2191.42 92.8546L2202.51 126.996L2173.47 105.895L2172 104.828L2170.53 105.895L2141.49 126.996L2152.58 92.8546L2153.14 91.1271L2151.67 90.0595L2122.63 68.959H2158.53H2160.35L2160.91 67.2315L2172 33.0902Z" fill="white" stroke="#FF5348" stroke-width="5"/>
</svg>
