<svg width="2262" height="168" viewBox="0 0 2262 168" fill="none" xmlns="http://www.w3.org/2000/svg">
<path d="M300.34 56.7C296.7 54.2733 292.92 52.2667 289 50.68C285.173 49 281.487 48.0667 277.94 47.88C273.553 47.6933 270.007 48.3933 267.3 49.98C264.593 51.5667 263.007 54.1333 262.54 57.68C262.26 60.1067 262.913 62.3467 264.5 64.4C266.18 66.36 268.42 68.18 271.22 69.86C274.113 71.54 277.147 73.08 280.32 74.48C284.147 76.16 287.787 78.26 291.24 80.78C294.693 83.3 297.4 86.6133 299.36 90.72C301.32 94.7333 301.88 100.007 301.04 106.54C300.387 111.767 298.427 116.527 295.16 120.82C291.893 125.113 287.46 128.473 281.86 130.9C276.353 133.327 269.773 134.307 262.12 133.84C256.24 133.467 250.36 132.207 244.48 130.06C238.6 127.913 233.187 124.787 228.24 120.68L239.16 105.42C242.427 108.313 246.207 110.74 250.5 112.7C254.887 114.567 258.9 115.64 262.54 115.92C264.967 116.013 267.44 115.827 269.96 115.36C272.48 114.8 274.673 113.727 276.54 112.14C278.407 110.553 279.527 108.267 279.9 105.28C280.273 102.2 279.107 99.4467 276.4 97.02C273.693 94.5 270.427 92.3533 266.6 90.58C263.613 89.18 260.533 87.5933 257.36 85.82C254.187 84.0467 251.247 81.9467 248.54 79.52C245.927 77.0933 243.92 74.1067 242.52 70.56C241.12 67.0133 240.747 62.8133 241.4 57.96C242.147 51.9867 244.107 46.9 247.28 42.7C250.453 38.4067 254.607 35.1867 259.74 33.04C264.873 30.8 270.66 29.7267 277.1 29.82C282.607 30.1 287.32 30.8467 291.24 32.06C295.253 33.18 298.753 34.58 301.74 36.26C304.727 37.94 307.48 39.76 310 41.72L300.34 56.7ZM361.088 29.96C372.755 29.96 381.621 32.7133 387.688 38.22C393.755 43.7267 396.788 51.1 396.788 60.34C396.788 64.82 396.041 69.3933 394.548 74.06C393.148 78.7267 390.861 83.0667 387.688 87.08C384.515 91 380.315 94.22 375.088 96.74C369.955 99.1667 363.655 100.38 356.188 100.38H342.328L338.268 133H317.268L329.868 29.96H361.088ZM357.728 80.64C362.208 80.64 365.708 79.6133 368.228 77.56C370.841 75.5067 372.708 73.1267 373.828 70.42C374.948 67.62 375.508 65.24 375.508 63.28C375.508 61.6933 375.181 59.8267 374.528 57.68C373.875 55.5333 372.568 53.6667 370.608 52.08C368.648 50.4 365.661 49.56 361.648 49.56H348.488L344.708 80.64H357.728ZM416.411 29.96H486.691L484.451 48.86H435.171L432.371 71.82H475.911L473.531 91.14H429.991L427.191 113.54H478.431L476.051 133H403.811L416.411 29.96ZM576.01 126.98C574.89 127.727 572.883 128.753 569.99 130.06C567.19 131.273 563.783 132.347 559.77 133.28C555.85 134.307 551.557 134.82 546.89 134.82C541.57 134.82 536.017 134.027 530.23 132.44C524.537 130.853 519.217 128.24 514.27 124.6C509.323 120.96 505.31 116.06 502.23 109.9C499.15 103.74 497.61 96.0867 497.61 86.94C497.61 79.5667 498.637 72.4733 500.69 65.66C502.743 58.7533 505.917 52.5933 510.21 47.18C514.597 41.6733 520.15 37.3333 526.87 34.16C533.59 30.8933 541.57 29.26 550.81 29.26C558.557 29.26 565.277 30.4733 570.97 32.9C576.663 35.2333 581.19 37.66 584.55 40.18L574.19 58.8C572.137 56.9333 569.29 54.9267 565.65 52.78C562.01 50.6333 557.717 49.3733 552.77 49C546.05 48.5333 540.123 49.84 534.99 52.92C529.95 55.9067 525.983 60.2 523.09 65.8C520.29 71.4 518.89 77.9333 518.89 85.4C518.89 91.1867 520.01 96.32 522.25 100.8C524.583 105.28 527.897 108.78 532.19 111.3C536.577 113.82 541.757 115.08 547.73 115.08C551.743 115.08 555.197 114.66 558.09 113.82C560.983 112.887 563.41 111.907 565.37 110.88C567.33 109.76 568.823 108.873 569.85 108.22L576.01 126.98ZM607.817 29.96H628.817L616.217 133H595.217L607.817 29.96ZM651.192 133H631.172L690.812 25.9H691.932L725.252 133H701.732L696.272 112.84H662.112L651.192 133ZM671.212 95.76H691.652L684.792 70.7L671.212 95.76ZM753.013 29.96H773.313L763.093 113.4H811.533L809.153 133H740.413L753.013 29.96ZM871.663 133L884.263 29.96H920.663C929.903 29.96 937.556 31.5 943.623 34.58C949.783 37.66 954.543 41.7667 957.903 46.9C961.263 52.0333 963.503 57.7733 964.623 64.12C965.836 70.4667 966.069 76.86 965.323 83.3C964.483 90.9533 962.429 97.86 959.163 104.02C955.989 110.087 951.929 115.313 946.983 119.7C942.129 123.993 936.669 127.307 930.603 129.64C924.629 131.88 918.423 133 911.983 133H871.663ZM894.343 113.4H910.863C920.009 113.4 927.616 110.74 933.683 105.42C939.843 100.1 943.483 92.26 944.603 81.9C945.443 75.18 945.023 69.72 943.343 65.52C941.663 61.2267 939.329 57.9133 936.343 55.58C933.356 53.2467 930.229 51.66 926.963 50.82C923.789 49.8867 921.036 49.42 918.703 49.42H902.183L894.343 113.4ZM991.587 29.96H1061.87L1059.63 48.86H1010.35L1007.55 71.82H1051.09L1048.71 91.14H1005.17L1002.37 113.54H1053.61L1051.23 133H978.987L991.587 29.96ZM1080.63 133H1060.61L1120.25 25.9H1121.37L1154.69 133H1131.17L1125.71 112.84H1091.55L1080.63 133ZM1100.65 95.76H1121.09L1114.23 70.7L1100.65 95.76ZM1182.45 29.96H1202.75L1192.53 113.4H1240.97L1238.59 133H1169.85L1182.45 29.96ZM1324.36 56.7C1320.72 54.2733 1316.94 52.2667 1313.02 50.68C1309.2 49 1305.51 48.0667 1301.96 47.88C1297.58 47.6933 1294.03 48.3933 1291.32 49.98C1288.62 51.5667 1287.03 54.1333 1286.56 57.68C1286.28 60.1067 1286.94 62.3467 1288.52 64.4C1290.2 66.36 1292.44 68.18 1295.24 69.86C1298.14 71.54 1301.17 73.08 1304.34 74.48C1308.17 76.16 1311.81 78.26 1315.26 80.78C1318.72 83.3 1321.42 86.6133 1323.38 90.72C1325.34 94.7333 1325.9 100.007 1325.06 106.54C1324.41 111.767 1322.45 116.527 1319.18 120.82C1315.92 125.113 1311.48 128.473 1305.88 130.9C1300.38 133.327 1293.8 134.307 1286.14 133.84C1280.26 133.467 1274.38 132.207 1268.5 130.06C1262.62 127.913 1257.21 124.787 1252.26 120.68L1263.18 105.42C1266.45 108.313 1270.23 110.74 1274.52 112.7C1278.91 114.567 1282.92 115.64 1286.56 115.92C1288.99 116.013 1291.46 115.827 1293.98 115.36C1296.5 114.8 1298.7 113.727 1300.56 112.14C1302.43 110.553 1303.55 108.267 1303.92 105.28C1304.3 102.2 1303.13 99.4467 1300.42 97.02C1297.72 94.5 1294.45 92.3533 1290.62 90.58C1287.64 89.18 1284.56 87.5933 1281.38 85.82C1278.21 84.0467 1275.27 81.9467 1272.56 79.52C1269.95 77.0933 1267.94 74.1067 1266.54 70.56C1265.14 67.0133 1264.77 62.8133 1265.42 57.96C1266.17 51.9867 1268.13 46.9 1271.3 42.7C1274.48 38.4067 1278.63 35.1867 1283.76 33.04C1288.9 30.8 1294.68 29.7267 1301.12 29.82C1306.63 30.1 1311.34 30.8467 1315.26 32.06C1319.28 33.18 1322.78 34.58 1325.76 36.26C1328.75 37.94 1331.5 39.76 1334.02 41.72L1324.36 56.7ZM1395.86 29.96H1460.26L1457.88 49.28H1414.48L1411.68 73.08H1449.2L1446.68 92.54H1409.16L1404.26 133H1383.26L1395.86 29.96ZM1517.05 133.98C1511.17 133.98 1505.29 133.047 1499.41 131.18C1493.62 129.313 1488.3 126.42 1483.45 122.5C1478.69 118.487 1474.86 113.4 1471.97 107.24C1469.08 100.987 1467.63 93.5667 1467.63 84.98C1467.63 78.82 1468.75 72.4733 1470.99 65.94C1473.32 59.3133 1476.78 53.2467 1481.35 47.74C1486.02 42.14 1491.85 37.6133 1498.85 34.16C1505.94 30.7067 1514.2 28.98 1523.63 28.98C1529.51 28.98 1535.34 29.9133 1541.13 31.78C1547.01 33.6467 1552.33 36.5867 1557.09 40.6C1561.94 44.52 1565.82 49.6067 1568.71 55.86C1571.6 62.02 1573.05 69.3933 1573.05 77.98C1573.05 84.14 1571.88 90.5333 1569.55 97.16C1567.31 103.693 1563.86 109.76 1559.19 115.36C1554.62 120.867 1548.78 125.347 1541.69 128.8C1534.69 132.253 1526.48 133.98 1517.05 133.98ZM1517.33 114.38C1523.68 114.38 1529.04 113.307 1533.43 111.16C1537.91 108.92 1541.5 106.027 1544.21 102.48C1546.92 98.9333 1548.88 95.1067 1550.09 91C1551.4 86.8933 1552.05 82.9267 1552.05 79.1C1552.05 73.6867 1550.79 68.6933 1548.27 64.12C1545.75 59.4533 1542.3 55.72 1537.91 52.92C1533.52 50.0267 1528.48 48.58 1522.79 48.58C1516.44 48.58 1511.08 49.7 1506.69 51.94C1502.3 54.0867 1498.76 56.9333 1496.05 60.48C1493.44 64.0267 1491.52 67.8533 1490.31 71.96C1489.19 76.0667 1488.63 80.0333 1488.63 83.86C1488.63 89.2733 1489.84 94.3133 1492.27 98.98C1494.7 103.553 1498.06 107.287 1502.35 110.18C1506.64 112.98 1511.64 114.38 1517.33 114.38ZM1630.25 29.96C1643.22 29.96 1652.79 33.1333 1658.95 39.48C1665.2 45.7333 1667.67 54.1333 1666.37 64.68C1665.62 70.56 1663.66 76.3467 1660.49 82.04C1657.31 87.7333 1652.6 92.26 1646.35 95.62L1665.67 133H1642.01L1624.23 100.24H1610.79L1606.73 133H1586.43L1599.03 29.96H1630.25ZM1627.59 80.64C1631.69 80.64 1635.01 79.8 1637.53 78.12C1640.05 76.3467 1641.91 74.2933 1643.13 71.96C1644.34 69.5333 1645.04 67.34 1645.23 65.38C1645.41 64.26 1645.41 62.86 1645.23 61.18C1645.13 59.4067 1644.67 57.6333 1643.83 55.86C1643.08 54.0867 1641.73 52.5933 1639.77 51.38C1637.81 50.1667 1635.05 49.56 1631.51 49.56H1616.95L1613.17 80.64H1627.59ZM1755.73 100.94L1726.47 29.96H1751.53L1769.31 77.56L1798.29 29.96H1823.35L1776.03 100.94L1772.11 133H1751.81L1755.73 100.94ZM1864.86 133.98C1858.98 133.98 1853.1 133.047 1847.22 131.18C1841.44 129.313 1836.12 126.42 1831.26 122.5C1826.5 118.487 1822.68 113.4 1819.78 107.24C1816.89 100.987 1815.44 93.5667 1815.44 84.98C1815.44 78.82 1816.56 72.4733 1818.8 65.94C1821.14 59.3133 1824.59 53.2467 1829.16 47.74C1833.83 42.14 1839.66 37.6133 1846.66 34.16C1853.76 30.7067 1862.02 28.98 1871.44 28.98C1877.32 28.98 1883.16 29.9133 1888.94 31.78C1894.82 33.6467 1900.14 36.5867 1904.9 40.6C1909.76 44.52 1913.63 49.6067 1916.52 55.86C1919.42 62.02 1920.86 69.3933 1920.86 77.98C1920.86 84.14 1919.7 90.5333 1917.36 97.16C1915.12 103.693 1911.67 109.76 1907 115.36C1902.43 120.867 1896.6 125.347 1889.5 128.8C1882.5 132.253 1874.29 133.98 1864.86 133.98ZM1865.14 114.38C1871.49 114.38 1876.86 113.307 1881.24 111.16C1885.72 108.92 1889.32 106.027 1892.02 102.48C1894.73 98.9333 1896.69 95.1067 1897.9 91C1899.21 86.8933 1899.86 82.9267 1899.86 79.1C1899.86 73.6867 1898.6 68.6933 1896.08 64.12C1893.56 59.4533 1890.11 55.72 1885.72 52.92C1881.34 50.0267 1876.3 48.58 1870.6 48.58C1864.26 48.58 1858.89 49.7 1854.5 51.94C1850.12 54.0867 1846.57 56.9333 1843.86 60.48C1841.25 64.0267 1839.34 67.8533 1838.12 71.96C1837 76.0667 1836.44 80.0333 1836.44 83.86C1836.44 89.2733 1837.66 94.3133 1840.08 98.98C1842.51 103.553 1845.87 107.287 1850.16 110.18C1854.46 112.98 1859.45 114.38 1865.14 114.38ZM1959.86 94.92C1959.49 98.1867 1960 101.313 1961.4 104.3C1962.89 107.287 1965.09 109.713 1967.98 111.58C1970.87 113.447 1974.23 114.38 1978.06 114.38C1981.89 114.38 1985.48 113.447 1988.84 111.58C1992.2 109.713 1995 107.287 1997.24 104.3C1999.57 101.313 2000.93 98.1867 2001.3 94.92L2009.28 29.96H2030.28L2022.3 95.34C2021.37 102.9 2018.66 109.62 2014.18 115.5C2009.7 121.287 2004.1 125.86 1997.38 129.22C1990.66 132.487 1983.43 134.12 1975.68 134.12C1968.03 134.12 1961.21 132.487 1955.24 129.22C1949.36 125.86 1944.93 121.287 1941.94 115.5C1938.95 109.62 1937.93 102.9 1938.86 95.34L1946.84 29.96H1967.84L1959.86 94.92Z" fill="white"/>
<path d="M300.34 56.7L298.676 59.1961L301.21 60.8858L302.861 58.3258L300.34 56.7ZM289 50.68L287.794 53.4269L287.834 53.4445L287.874 53.4608L289 50.68ZM277.94 47.88L278.098 44.8841L278.083 44.8833L278.068 44.8827L277.94 47.88ZM267.3 49.98L265.783 47.3919L265.783 47.3919L267.3 49.98ZM262.54 57.68L259.566 57.2886L259.563 57.3124L259.56 57.3361L262.54 57.68ZM264.5 64.4L262.126 66.2343L262.173 66.2946L262.222 66.3524L264.5 64.4ZM271.22 69.86L269.677 72.4325L269.695 72.4436L269.714 72.4544L271.22 69.86ZM280.32 74.48L279.109 77.2248L279.114 77.2269L280.32 74.48ZM291.24 80.78L293.008 78.3566L293.008 78.3566L291.24 80.78ZM299.36 90.72L296.653 92.0122L296.658 92.0244L296.664 92.0365L299.36 90.72ZM301.04 106.54L298.064 106.157L298.063 106.168L301.04 106.54ZM295.16 120.82L292.773 119.003L292.773 119.003L295.16 120.82ZM281.86 130.9L280.667 128.147L280.659 128.151L280.65 128.155L281.86 130.9ZM262.12 133.84L261.93 136.834L261.937 136.834L262.12 133.84ZM244.48 130.06L243.451 132.878L243.451 132.878L244.48 130.06ZM228.24 120.68L225.8 118.934L224.175 121.205L226.324 122.988L228.24 120.68ZM239.16 105.42L241.149 103.174L238.657 100.967L236.72 103.674L239.16 105.42ZM250.5 112.7L249.254 115.429L249.29 115.445L249.325 115.46L250.5 112.7ZM262.54 115.92L262.31 118.911L262.367 118.916L262.425 118.918L262.54 115.92ZM269.96 115.36L270.506 118.31L270.559 118.3L270.611 118.289L269.96 115.36ZM276.54 112.14L278.483 114.426L278.483 114.426L276.54 112.14ZM279.9 105.28L282.877 105.652L282.878 105.641L279.9 105.28ZM276.4 97.02L274.356 99.2157L274.376 99.2349L274.397 99.2537L276.4 97.02ZM266.6 90.58L265.327 93.2964L265.339 93.3019L266.6 90.58ZM257.36 85.82L255.897 88.4388L255.897 88.4388L257.36 85.82ZM248.54 79.52L246.499 81.7184L246.518 81.7362L246.537 81.7537L248.54 79.52ZM242.52 70.56L239.73 71.6615L239.73 71.6615L242.52 70.56ZM241.4 57.96L244.373 58.3602L244.375 58.3462L244.377 58.3321L241.4 57.96ZM247.28 42.7L249.674 44.5085L249.683 44.4959L249.693 44.4832L247.28 42.7ZM259.74 33.04L260.897 35.8077L260.919 35.7988L260.94 35.7896L259.74 33.04ZM277.1 29.82L277.252 26.8239L277.198 26.8211L277.143 26.8203L277.1 29.82ZM291.24 32.06L290.353 34.9259L290.393 34.9383L290.434 34.9496L291.24 32.06ZM310 41.72L312.521 43.3458L314.01 41.0379L311.842 39.3519L310 41.72ZM302.004 54.2038C298.201 51.6681 294.241 49.5648 290.126 47.8992L287.874 53.4608C291.599 54.9685 295.199 56.8785 298.676 59.1961L302.004 54.2038ZM290.206 47.9331C286.105 46.1327 282.064 45.0929 278.098 44.8841L277.782 50.8758C280.91 51.0404 284.242 51.8673 287.794 53.4269L290.206 47.9331ZM278.068 44.8827C273.326 44.6809 269.148 45.4189 265.783 47.3919L268.817 52.5681C270.865 51.3677 273.781 50.7057 277.812 50.8773L278.068 44.8827ZM265.783 47.3919C262.159 49.5165 260.134 52.9701 259.566 57.2886L265.514 58.0714C265.879 55.2966 267.028 53.6168 268.817 52.5681L265.783 47.3919ZM259.56 57.3361C259.184 60.5921 260.094 63.6044 262.126 66.2343L266.874 62.5657C265.733 61.0889 265.336 59.6213 265.52 58.0239L259.56 57.3361ZM262.222 66.3524C264.159 68.6122 266.67 70.6285 269.677 72.4325L272.763 67.2875C270.17 65.7315 268.201 64.1078 266.778 62.4476L262.222 66.3524ZM269.714 72.4544C272.706 74.1919 275.838 75.7817 279.109 77.2248L281.531 71.7352C278.455 70.3783 275.521 68.8881 272.726 67.2656L269.714 72.4544ZM279.114 77.2269C282.738 78.8177 286.189 80.8083 289.472 83.2034L293.008 78.3566C289.384 75.7117 285.556 73.5023 281.526 71.7331L279.114 77.2269ZM289.472 83.2034C292.497 85.4111 294.893 88.3248 296.653 92.0122L302.067 89.4278C299.907 84.9019 296.89 81.1888 293.008 78.3566L289.472 83.2034ZM296.664 92.0365C298.272 95.3283 298.863 99.9452 298.064 106.157L304.016 106.923C304.897 100.068 304.368 94.1384 302.056 89.4035L296.664 92.0365ZM298.063 106.168C297.477 110.856 295.727 115.121 292.773 119.003L297.547 122.637C301.126 117.933 303.296 112.677 304.017 106.912L298.063 106.168ZM292.773 119.003C289.856 122.836 285.858 125.898 280.667 128.147L283.053 133.653C289.062 131.049 293.93 127.391 297.547 122.637L292.773 119.003ZM280.65 128.155C275.685 130.343 269.606 131.291 262.303 130.846L261.937 136.834C269.941 137.322 277.022 136.31 283.07 133.645L280.65 128.155ZM262.31 130.846C256.734 130.492 251.136 129.296 245.509 127.242L243.451 132.878C249.584 135.117 255.746 136.441 261.93 136.834L262.31 130.846ZM245.509 127.242C239.96 125.216 234.846 122.265 230.156 118.372L226.324 122.988C231.528 127.308 237.24 130.61 243.451 132.878L245.509 127.242ZM230.68 122.426L241.6 107.166L236.72 103.674L225.8 118.934L230.68 122.426ZM237.171 107.666C240.677 110.772 244.712 113.356 249.254 115.429L251.746 109.971C247.701 108.124 244.176 105.855 241.149 103.174L237.171 107.666ZM249.325 115.46C253.926 117.418 258.262 118.6 262.31 118.911L262.77 112.929C259.538 112.68 255.848 111.715 251.675 109.94L249.325 115.46ZM262.425 118.918C265.085 119.02 267.78 118.815 270.506 118.31L269.414 112.41C267.1 112.839 264.848 113.007 262.655 112.922L262.425 118.918ZM270.611 118.289C273.581 117.629 276.224 116.346 278.483 114.426L274.597 109.854C273.122 111.108 271.379 111.971 269.309 112.431L270.611 118.289ZM278.483 114.426C281.045 112.248 282.433 109.205 282.877 105.652L276.923 104.908C276.621 107.328 275.768 108.859 274.597 109.854L278.483 114.426ZM282.878 105.641C283.391 101.412 281.695 97.738 278.403 94.7863L274.397 99.2537C276.518 101.155 277.156 102.988 276.922 104.919L282.878 105.641ZM278.444 94.8243C275.476 92.0608 271.935 89.7461 267.861 87.8581L265.339 93.3019C268.918 94.9606 271.911 96.9392 274.356 99.2157L278.444 94.8243ZM267.873 87.8636C264.957 86.4967 261.941 84.9432 258.823 83.2012L255.897 88.4388C259.126 90.2435 262.269 91.8633 265.327 93.2964L267.873 87.8636ZM258.823 83.2012C255.844 81.5359 253.084 79.5651 250.543 77.2863L246.537 81.7537C249.409 84.3283 252.53 86.5574 255.897 88.4388L258.823 83.2012ZM250.581 77.3216C248.319 75.2208 246.557 72.6176 245.31 69.4585L239.73 71.6615C241.283 75.5957 243.534 78.9658 246.499 81.7184L250.581 77.3216ZM245.31 69.4585C244.145 66.5055 243.769 62.8466 244.373 58.3602L238.427 57.5598C237.724 62.78 238.095 67.5212 239.73 71.6615L245.31 69.4585ZM244.377 58.3321C245.068 52.8043 246.86 48.2319 249.674 44.5085L244.886 40.8915C241.353 45.5681 239.226 51.169 238.423 57.5879L244.377 58.3321ZM249.693 44.4832C252.53 40.6441 256.242 37.7547 260.897 35.8077L258.583 30.2723C252.972 32.6186 248.377 36.1692 244.867 40.9168L249.693 44.4832ZM260.94 35.7896C265.627 33.7444 270.98 32.7316 277.057 32.8197L277.143 26.8203C270.34 26.7217 264.12 27.8555 258.54 30.2904L260.94 35.7896ZM276.948 32.8161C282.284 33.0875 286.737 33.8066 290.353 34.9259L292.127 29.1941C287.903 27.8867 282.929 27.1125 277.252 26.8239L276.948 32.8161ZM290.434 34.9496C294.263 36.0183 297.531 37.3347 300.269 38.8747L303.211 33.6453C299.975 31.8252 296.244 30.3417 292.046 29.1704L290.434 34.9496ZM300.269 38.8747C303.136 40.4871 305.764 42.2257 308.158 44.0881L311.842 39.3519C309.196 37.2943 306.318 35.3929 303.211 33.6453L300.269 38.8747ZM307.479 40.0942L297.819 55.0742L302.861 58.3258L312.521 43.3458L307.479 40.0942ZM394.548 74.06L391.691 73.1457L391.682 73.1717L391.674 73.198L394.548 74.06ZM387.688 87.08L390.02 88.9676L390.031 88.9542L390.041 88.9407L387.688 87.08ZM375.088 96.74L376.37 99.4522L376.381 99.4473L376.391 99.4423L375.088 96.74ZM342.328 100.38V97.38H339.678L339.351 100.009L342.328 100.38ZM338.268 133V136H340.918L341.245 133.371L338.268 133ZM317.268 133L314.29 132.636L313.879 136H317.268V133ZM329.868 29.96V26.96H327.212L326.89 29.5959L329.868 29.96ZM368.228 77.56L366.375 75.201L366.354 75.2175L366.333 75.2343L368.228 77.56ZM373.828 70.42L376.6 71.5671L376.607 71.5507L376.613 71.5342L373.828 70.42ZM374.528 57.68L377.398 56.8065L377.398 56.8065L374.528 57.68ZM370.608 52.08L368.656 54.3578L368.688 54.3852L368.72 54.4117L370.608 52.08ZM348.488 49.56V46.56H345.831L345.51 49.1978L348.488 49.56ZM344.708 80.64L341.73 80.2778L341.321 83.64H344.708V80.64ZM361.088 32.96C372.323 32.96 380.352 35.613 385.672 40.4414L389.704 35.9986C382.89 29.8137 373.186 26.96 361.088 26.96V32.96ZM385.672 40.4414C391.028 45.3036 393.788 51.8263 393.788 60.34H399.788C399.788 50.3737 396.481 42.1497 389.704 35.9986L385.672 40.4414ZM393.788 60.34C393.788 64.482 393.098 68.747 391.691 73.1457L397.405 74.9743C398.984 70.0396 399.788 65.158 399.788 60.34H393.788ZM391.674 73.198C390.389 77.4839 388.285 81.4879 385.335 85.2193L390.041 88.9407C393.438 84.6454 395.907 79.9694 397.421 74.922L391.674 73.198ZM385.356 85.1924C382.501 88.72 378.673 91.6811 373.785 94.0377L376.391 99.4423C381.956 96.7589 386.529 93.28 390.02 88.9676L385.356 85.1924ZM373.806 94.0278C369.179 96.2151 363.345 97.38 356.188 97.38V103.38C363.964 103.38 370.73 102.118 376.37 99.4522L373.806 94.0278ZM356.188 97.38H342.328V103.38H356.188V97.38ZM339.351 100.009L335.291 132.629L341.245 133.371L345.305 100.751L339.351 100.009ZM338.268 130H317.268V136H338.268V130ZM320.246 133.364L332.846 30.3241L326.89 29.5959L314.29 132.636L320.246 133.364ZM329.868 32.96H361.088V26.96H329.868V32.96ZM357.728 83.64C362.639 83.64 366.897 82.5146 370.123 79.8857L366.333 75.2343C364.519 76.712 361.776 77.64 357.728 77.64V83.64ZM370.081 79.919C373.045 77.5908 375.258 74.811 376.6 71.5671L371.056 69.2729C370.158 71.4423 368.638 73.4225 366.375 75.201L370.081 79.919ZM376.613 71.5342C377.807 68.5506 378.508 65.7703 378.508 63.28H372.508C372.508 64.7097 372.089 66.6894 371.043 69.3058L376.613 71.5342ZM378.508 63.28C378.508 61.303 378.105 59.1291 377.398 56.8065L371.658 58.5535C372.258 60.5242 372.508 62.0837 372.508 63.28H378.508ZM377.398 56.8065C376.549 54.0171 374.862 51.6636 372.496 49.7483L368.72 54.4117C370.274 55.6697 371.2 57.0495 371.658 58.5535L377.398 56.8065ZM372.56 49.8022C369.825 47.458 365.999 46.56 361.648 46.56V52.56C365.324 52.56 367.47 53.3419 368.656 54.3578L372.56 49.8022ZM361.648 46.56H348.488V52.56H361.648V46.56ZM345.51 49.1978L341.73 80.2778L347.686 81.0022L351.466 49.9222L345.51 49.1978ZM344.708 83.64H357.728V77.64H344.708V83.64ZM416.411 29.96V26.96H413.755L413.433 29.5959L416.411 29.96ZM486.691 29.96L489.67 30.3131L490.067 26.96H486.691V29.96ZM484.451 48.86V51.86H487.116L487.43 49.2131L484.451 48.86ZM435.171 48.86V45.86H432.515L432.193 48.4968L435.171 48.86ZM432.371 71.82L429.393 71.4568L428.983 74.82H432.371V71.82ZM475.911 71.82L478.888 72.1868L479.303 68.82H475.911V71.82ZM473.531 91.14V94.14H476.184L476.508 91.5068L473.531 91.14ZM429.991 91.14V88.14H427.343L427.014 90.7679L429.991 91.14ZM427.191 113.54L424.214 113.168L423.793 116.54H427.191V113.54ZM478.431 113.54L481.409 113.904L481.82 110.54H478.431V113.54ZM476.051 133V136H478.706L479.029 133.364L476.051 133ZM403.811 133L400.833 132.636L400.422 136H403.811V133ZM416.411 32.96H486.691V26.96H416.411V32.96ZM483.712 29.6069L481.472 48.5069L487.43 49.2131L489.67 30.3131L483.712 29.6069ZM484.451 45.86H435.171V51.86H484.451V45.86ZM432.193 48.4968L429.393 71.4568L435.349 72.1832L438.149 49.2232L432.193 48.4968ZM432.371 74.82H475.911V68.82H432.371V74.82ZM472.933 71.4532L470.553 90.7732L476.508 91.5068L478.888 72.1868L472.933 71.4532ZM473.531 88.14H429.991V94.14H473.531V88.14ZM427.014 90.7679L424.214 113.168L430.168 113.912L432.968 91.5121L427.014 90.7679ZM427.191 116.54H478.431V110.54H427.191V116.54ZM475.453 113.176L473.073 132.636L479.029 133.364L481.409 113.904L475.453 113.176ZM476.051 130H403.811V136H476.051V130ZM406.789 133.364L419.389 30.3241L413.433 29.5959L400.833 132.636L406.789 133.364ZM576.01 126.98L577.674 129.476L579.572 128.211L578.86 126.044L576.01 126.98ZM569.99 130.06L571.183 132.813L571.204 132.804L571.225 132.794L569.99 130.06ZM559.77 133.28L559.09 130.358L559.05 130.367L559.01 130.378L559.77 133.28ZM530.23 132.44L529.424 135.33L529.437 135.333L530.23 132.44ZM514.27 124.6L512.492 127.016L512.492 127.016L514.27 124.6ZM500.69 65.66L503.562 66.5257L503.565 66.5149L500.69 65.66ZM510.21 47.18L507.863 45.3108L507.859 45.3158L510.21 47.18ZM526.87 34.16L528.151 36.8727L528.166 36.8655L528.181 36.8581L526.87 34.16ZM570.97 32.9L569.794 35.6598L569.813 35.668L569.832 35.6759L570.97 32.9ZM584.55 40.18L587.171 41.6386L588.444 39.3508L586.35 37.78L584.55 40.18ZM574.19 58.8L572.172 61.0198L574.972 63.5651L576.811 60.2586L574.19 58.8ZM565.65 52.78L564.126 55.3641L564.126 55.3641L565.65 52.78ZM552.77 49L552.996 46.0085L552.987 46.0078L552.978 46.0072L552.77 49ZM534.99 52.92L536.519 55.5009L536.526 55.4967L536.533 55.4925L534.99 52.92ZM523.09 65.8L520.425 64.4229L520.415 64.4406L520.407 64.4584L523.09 65.8ZM522.25 100.8L519.567 102.142L519.578 102.164L519.589 102.186L522.25 100.8ZM532.19 111.3L530.671 113.887L530.683 113.894L530.695 113.901L532.19 111.3ZM558.09 113.82L558.926 116.701L558.969 116.689L559.011 116.675L558.09 113.82ZM565.37 110.88L566.762 113.537L566.811 113.512L566.858 113.485L565.37 110.88ZM569.85 108.22L572.7 107.284L571.496 103.617L568.239 105.689L569.85 108.22ZM574.346 124.484C573.451 125.081 571.645 126.021 568.755 127.326L571.225 132.794C574.121 131.486 576.329 130.373 577.674 129.476L574.346 124.484ZM568.797 127.307C566.209 128.429 562.984 129.452 559.09 130.358L560.449 136.202C564.582 135.241 568.171 134.118 571.183 132.813L568.797 127.307ZM559.01 130.378C555.372 131.331 551.338 131.82 546.89 131.82V137.82C551.775 137.82 556.328 137.283 560.53 136.182L559.01 130.378ZM546.89 131.82C541.87 131.82 536.584 131.071 531.023 129.547L529.437 135.333C535.449 136.982 541.27 137.82 546.89 137.82V131.82ZM531.035 129.55C525.706 128.065 520.713 125.617 516.048 122.184L512.492 127.016C517.72 130.863 523.367 133.642 529.424 135.33L531.035 129.55ZM516.048 122.184C511.528 118.858 507.807 114.346 504.913 108.558L499.547 111.242C502.813 117.774 507.118 123.062 512.492 127.016L516.048 122.184ZM504.913 108.558C502.098 102.929 500.61 95.7672 500.61 86.94H494.61C494.61 96.4061 496.201 104.551 499.547 111.242L504.913 108.558ZM500.61 86.94C500.61 79.8492 501.597 73.0482 503.562 66.5256L497.817 64.7943C495.676 71.8985 494.61 79.2841 494.61 86.94H500.61ZM503.565 66.5149C505.514 59.9591 508.515 54.1449 512.56 49.0442L507.859 45.3158C503.318 51.0418 499.972 57.5476 497.814 64.8051L503.565 66.5149ZM512.556 49.0492C516.641 43.9214 521.822 39.8613 528.151 36.8727L525.589 31.4472C518.477 34.8054 512.552 39.4252 507.863 45.3108L512.556 49.0492ZM528.181 36.8581C534.408 33.8315 541.919 32.26 550.81 32.26V26.26C541.221 26.26 532.772 27.9552 525.558 31.4619L528.181 36.8581ZM550.81 32.26C558.251 32.26 564.553 33.4261 569.794 35.6598L572.146 30.1402C566 27.5205 558.862 26.26 550.81 26.26V32.26ZM569.832 35.6759C575.388 37.953 579.664 40.2658 582.75 42.58L586.35 37.78C582.715 35.0542 577.938 32.5137 572.108 30.1241L569.832 35.6759ZM581.928 38.7214L571.568 57.3414L576.811 60.2586L587.171 41.6386L581.928 38.7214ZM576.208 56.5802C573.946 54.5238 570.909 52.3987 567.174 50.1959L564.126 55.3641C567.671 57.4546 570.327 59.3428 572.172 61.0198L576.208 56.5802ZM567.174 50.1959C563.075 47.7785 558.321 46.4104 552.996 46.0085L552.544 51.9915C557.112 52.3362 560.945 53.4882 564.126 55.3641L567.174 50.1959ZM552.978 46.0072C545.724 45.5035 539.171 46.9125 533.446 50.3475L536.533 55.4925C541.075 52.7675 546.375 51.5632 552.562 51.9928L552.978 46.0072ZM533.46 50.3391C527.9 53.6345 523.556 58.3626 520.425 64.4229L525.755 67.1771C528.411 62.0374 532 58.1789 536.519 55.5009L533.46 50.3391ZM520.407 64.4584C517.362 70.5478 515.89 77.5565 515.89 85.4H521.89C521.89 78.3101 523.218 72.2522 525.773 67.1416L520.407 64.4584ZM515.89 85.4C515.89 91.58 517.088 97.1848 519.567 102.142L524.933 99.4584C522.932 95.4552 521.89 90.7933 521.89 85.4H515.89ZM519.589 102.186C522.179 107.158 525.884 111.078 530.671 113.887L533.708 108.713C529.909 106.482 526.988 103.402 524.911 99.4142L519.589 102.186ZM530.695 113.901C535.613 116.726 541.327 118.08 547.73 118.08V112.08C542.186 112.08 537.54 110.914 533.684 108.699L530.695 113.901ZM547.73 118.08C551.939 118.08 555.688 117.641 558.926 116.701L557.253 110.939C554.705 111.679 551.548 112.08 547.73 112.08V118.08ZM559.011 116.675C562.011 115.707 564.607 114.666 566.762 113.537L563.978 108.223C562.213 109.147 559.955 110.066 557.169 110.965L559.011 116.675ZM566.858 113.485C568.831 112.357 570.373 111.443 571.46 110.751L568.239 105.689C567.273 106.304 565.829 107.163 563.881 108.275L566.858 113.485ZM567 109.156L573.16 127.916L578.86 126.044L572.7 107.284L567 109.156ZM607.817 29.96V26.96H605.162L604.839 29.5959L607.817 29.96ZM628.817 29.96L631.795 30.3241L632.206 26.96H628.817V29.96ZM616.217 133V136H618.873L619.195 133.364L616.217 133ZM595.217 133L592.239 132.636L591.828 136H595.217V133ZM607.817 32.96H628.817V26.96H607.817V32.96ZM625.839 29.5959L613.239 132.636L619.195 133.364L631.795 30.3241L625.839 29.5959ZM616.217 130H595.217V136H616.217V130ZM598.195 133.364L610.795 30.3241L604.839 29.5959L592.239 132.636L598.195 133.364ZM651.192 133V136H652.979L653.83 134.429L651.192 133ZM631.172 133L628.551 131.54L626.068 136H631.172V133ZM690.812 25.9V22.9H689.049L688.191 24.4404L690.812 25.9ZM691.932 25.9L694.797 25.0088L694.141 22.9H691.932V25.9ZM725.252 133V136H729.327L728.117 132.109L725.252 133ZM701.732 133L698.836 133.784L699.436 136H701.732V133ZM696.272 112.84L699.168 112.056L698.568 109.84H696.272V112.84ZM662.112 112.84V109.84H660.325L659.474 111.411L662.112 112.84ZM671.212 95.76L668.574 94.3307L666.174 98.76H671.212V95.76ZM691.652 95.76V98.76H695.584L694.546 94.9679L691.652 95.76ZM684.792 70.7L687.686 69.9079L685.713 62.7032L682.154 69.2707L684.792 70.7ZM651.192 130H631.172V136H651.192V130ZM633.793 134.46L693.433 27.3595L688.191 24.4404L628.551 131.54L633.793 134.46ZM690.812 28.9H691.932V22.9H690.812V28.9ZM689.067 26.7912L722.387 133.891L728.117 132.109L694.797 25.0088L689.067 26.7912ZM725.252 130H701.732V136H725.252V130ZM704.628 132.216L699.168 112.056L693.376 113.624L698.836 133.784L704.628 132.216ZM696.272 109.84H662.112V115.84H696.272V109.84ZM659.474 111.411L648.554 131.571L653.83 134.429L664.75 114.269L659.474 111.411ZM671.212 98.76H691.652V92.76H671.212V98.76ZM694.546 94.9679L687.686 69.9079L681.898 71.4921L688.758 96.5521L694.546 94.9679ZM682.154 69.2707L668.574 94.3307L673.85 97.1893L687.43 72.1293L682.154 69.2707ZM753.013 29.96V26.96H750.357L750.035 29.5959L753.013 29.96ZM773.313 29.96L776.29 30.3247L776.702 26.96H773.313V29.96ZM763.093 113.4L760.115 113.035L759.703 116.4H763.093V113.4ZM811.533 113.4L814.511 113.762L814.919 110.4H811.533V113.4ZM809.153 133V136H811.81L812.131 133.362L809.153 133ZM740.413 133L737.435 132.636L737.023 136H740.413V133ZM753.013 32.96H773.313V26.96H753.013V32.96ZM770.335 29.5953L760.115 113.035L766.07 113.765L776.29 30.3247L770.335 29.5953ZM763.093 116.4H811.533V110.4H763.093V116.4ZM808.554 113.038L806.174 132.638L812.131 133.362L814.511 113.762L808.554 113.038ZM809.153 130H740.413V136H809.153V130ZM743.39 133.364L755.99 30.3241L750.035 29.5959L737.435 132.636L743.39 133.364ZM871.663 133L868.685 132.636L868.273 136H871.663V133ZM884.263 29.96V26.96H881.607L881.285 29.5959L884.263 29.96ZM943.623 34.58L942.264 37.255L942.273 37.2592L942.281 37.2633L943.623 34.58ZM957.903 46.9L960.413 45.257L960.413 45.257L957.903 46.9ZM964.623 64.12L961.668 64.6414L961.672 64.6624L961.676 64.6833L964.623 64.12ZM965.323 83.3L962.342 82.9545L962.341 82.9636L962.34 82.9727L965.323 83.3ZM959.163 104.02L956.512 102.614L956.508 102.622L956.504 102.63L959.163 104.02ZM946.983 119.7L948.97 121.947L948.973 121.945L946.983 119.7ZM930.603 129.64L931.656 132.449L931.668 132.445L931.679 132.44L930.603 129.64ZM894.343 113.4L891.365 113.035L890.952 116.4H894.343V113.4ZM933.683 105.42L931.722 103.15L931.713 103.157L931.705 103.164L933.683 105.42ZM944.603 81.9L941.626 81.5279L941.623 81.5527L941.62 81.5776L944.603 81.9ZM943.343 65.52L940.549 66.6132L940.553 66.6237L940.557 66.6342L943.343 65.52ZM936.343 55.58L938.189 53.2159L938.189 53.2159L936.343 55.58ZM926.963 50.82L926.116 53.6981L926.165 53.7126L926.215 53.7255L926.963 50.82ZM902.183 49.42V46.42H899.528L899.205 49.0551L902.183 49.42ZM874.64 133.364L887.24 30.3241L881.285 29.5959L868.685 132.636L874.64 133.364ZM884.263 32.96H920.663V26.96H884.263V32.96ZM920.663 32.96C929.591 32.96 936.742 34.4511 942.264 37.255L944.981 31.905C938.37 28.5489 930.214 26.96 920.663 26.96V32.96ZM942.281 37.2633C948.026 40.1357 952.357 43.9061 955.392 48.543L960.413 45.257C956.728 39.6272 951.539 35.1843 944.964 31.8967L942.281 37.2633ZM955.392 48.543C958.519 53.3193 960.615 58.6742 961.668 64.6414L967.577 63.5986C966.39 56.8724 964.006 50.7473 960.413 45.257L955.392 48.543ZM961.676 64.6833C962.832 70.7295 963.054 76.8163 962.342 82.9545L968.303 83.6455C969.084 76.9037 968.84 70.2038 967.569 63.5567L961.676 64.6833ZM962.34 82.9727C961.537 90.2882 959.583 96.823 956.512 102.614L961.813 105.426C965.275 98.897 967.428 91.6184 968.305 83.6273L962.34 82.9727ZM956.504 102.63C953.494 108.385 949.656 113.319 944.992 117.455L948.973 121.945C954.202 117.308 958.485 111.788 961.821 105.41L956.504 102.63ZM944.995 117.453C940.41 121.508 935.259 124.635 929.526 126.84L931.679 132.44C938.079 129.979 943.848 126.478 948.97 121.947L944.995 117.453ZM929.549 126.831C923.916 128.943 918.066 130 911.983 130V136C918.779 136 925.342 134.817 931.656 132.449L929.549 126.831ZM911.983 130H871.663V136H911.983V130ZM894.343 116.4H910.863V110.4H894.343V116.4ZM910.863 116.4C920.633 116.4 928.973 113.54 935.66 107.676L931.705 103.164C926.258 107.94 919.385 110.4 910.863 110.4V116.4ZM935.643 107.69C942.526 101.746 946.407 93.1183 947.585 82.2224L941.62 81.5776C940.558 91.4017 937.159 98.4537 931.722 103.15L935.643 107.69ZM947.579 82.2721C948.453 75.2796 948.067 69.2542 946.128 64.4058L940.557 66.6342C941.978 70.1858 942.432 75.0804 941.626 81.5279L947.579 82.2721ZM946.136 64.4268C944.303 59.7409 941.683 55.9453 938.189 53.2159L934.496 57.9441C936.975 59.8814 939.022 62.7124 940.549 66.6132L946.136 64.4268ZM938.189 53.2159C934.918 50.6598 931.423 48.8694 927.71 47.9145L926.215 53.7255C929.035 54.4506 931.794 55.8335 934.496 57.9441L938.189 53.2159ZM927.809 47.9419C924.466 46.9585 921.414 46.42 918.703 46.42V52.42C920.657 52.42 923.113 52.8148 926.116 53.6981L927.809 47.9419ZM918.703 46.42H902.183V52.42H918.703V46.42ZM899.205 49.0551L891.365 113.035L897.32 113.765L905.16 49.7849L899.205 49.0551ZM991.587 29.96V26.96H988.931L988.609 29.5959L991.587 29.96ZM1061.87 29.96L1064.85 30.3131L1065.24 26.96H1061.87V29.96ZM1059.63 48.86V51.86H1062.29L1062.61 49.2131L1059.63 48.86ZM1010.35 48.86V45.86H1007.69L1007.37 48.4968L1010.35 48.86ZM1007.55 71.82L1004.57 71.4568L1004.16 74.82H1007.55V71.82ZM1051.09 71.82L1054.06 72.1868L1054.48 68.82H1051.09V71.82ZM1048.71 91.14V94.14H1051.36L1051.68 91.5068L1048.71 91.14ZM1005.17 91.14V88.14H1002.52L1002.19 90.7679L1005.17 91.14ZM1002.37 113.54L999.39 113.168L998.968 116.54H1002.37V113.54ZM1053.61 113.54L1056.58 113.904L1057 110.54H1053.61V113.54ZM1051.23 133V136H1053.88L1054.2 133.364L1051.23 133ZM978.987 133L976.009 132.636L975.598 136H978.987V133ZM991.587 32.96H1061.87V26.96H991.587V32.96ZM1058.89 29.6069L1056.65 48.5069L1062.61 49.2131L1064.85 30.3131L1058.89 29.6069ZM1059.63 45.86H1010.35V51.86H1059.63V45.86ZM1007.37 48.4968L1004.57 71.4568L1010.52 72.1832L1013.32 49.2232L1007.37 48.4968ZM1007.55 74.82H1051.09V68.82H1007.55V74.82ZM1048.11 71.4532L1045.73 90.7732L1051.68 91.5068L1054.06 72.1868L1048.11 71.4532ZM1048.71 88.14H1005.17V94.14H1048.71V88.14ZM1002.19 90.7679L999.39 113.168L1005.34 113.912L1008.14 91.5121L1002.19 90.7679ZM1002.37 116.54H1053.61V110.54H1002.37V116.54ZM1050.63 113.176L1048.25 132.636L1054.2 133.364L1056.58 113.904L1050.63 113.176ZM1051.23 130H978.987V136H1051.23V130ZM981.965 133.364L994.565 30.3241L988.609 29.5959L976.009 132.636L981.965 133.364ZM1080.63 133V136H1082.41L1083.26 134.429L1080.63 133ZM1060.61 133L1057.98 131.54L1055.5 136H1060.61V133ZM1120.25 25.9V22.9H1118.48L1117.62 24.4404L1120.25 25.9ZM1121.37 25.9L1124.23 25.0088L1123.57 22.9H1121.37V25.9ZM1154.69 133V136H1158.76L1157.55 132.109L1154.69 133ZM1131.17 133L1128.27 133.784L1128.87 136H1131.17V133ZM1125.71 112.84L1128.6 112.056L1128 109.84H1125.71V112.84ZM1091.55 112.84V109.84H1089.76L1088.91 111.411L1091.55 112.84ZM1100.65 95.76L1098.01 94.3307L1095.61 98.76H1100.65V95.76ZM1121.09 95.76V98.76H1125.02L1123.98 94.9679L1121.09 95.76ZM1114.23 70.7L1117.12 69.9079L1115.15 62.7032L1111.59 69.2707L1114.23 70.7ZM1080.63 130H1060.61V136H1080.63V130ZM1063.23 134.46L1122.87 27.3595L1117.62 24.4404L1057.98 131.54L1063.23 134.46ZM1120.25 28.9H1121.37V22.9H1120.25V28.9ZM1118.5 26.7912L1151.82 133.891L1157.55 132.109L1124.23 25.0088L1118.5 26.7912ZM1154.69 130H1131.17V136H1154.69V130ZM1134.06 132.216L1128.6 112.056L1122.81 113.624L1128.27 133.784L1134.06 132.216ZM1125.71 109.84H1091.55V115.84H1125.71V109.84ZM1088.91 111.411L1077.99 131.571L1083.26 134.429L1094.18 114.269L1088.91 111.411ZM1100.65 98.76H1121.09V92.76H1100.65V98.76ZM1123.98 94.9679L1117.12 69.9079L1111.33 71.4921L1118.19 96.5521L1123.98 94.9679ZM1111.59 69.2707L1098.01 94.3307L1103.28 97.1893L1116.86 72.1293L1111.59 69.2707ZM1182.45 29.96V26.96H1179.79L1179.47 29.5959L1182.45 29.96ZM1202.75 29.96L1205.72 30.3247L1206.14 26.96H1202.75V29.96ZM1192.53 113.4L1189.55 113.035L1189.14 116.4H1192.53V113.4ZM1240.97 113.4L1243.94 113.762L1244.35 110.4H1240.97V113.4ZM1238.59 133V136H1241.24L1241.56 133.362L1238.59 133ZM1169.85 133L1166.87 132.636L1166.46 136H1169.85V133ZM1182.45 32.96H1202.75V26.96H1182.45V32.96ZM1199.77 29.5953L1189.55 113.035L1195.5 113.765L1205.72 30.3247L1199.77 29.5953ZM1192.53 116.4H1240.97V110.4H1192.53V116.4ZM1237.99 113.038L1235.61 132.638L1241.56 133.362L1243.94 113.762L1237.99 113.038ZM1238.59 130H1169.85V136H1238.59V130ZM1172.82 133.364L1185.42 30.3241L1179.47 29.5959L1166.87 132.636L1172.82 133.364ZM1324.36 56.7L1322.7 59.1961L1325.23 60.8858L1326.88 58.3258L1324.36 56.7ZM1313.02 50.68L1311.82 53.4269L1311.86 53.4445L1311.9 53.4608L1313.02 50.68ZM1301.96 47.88L1302.12 44.8841L1302.11 44.8833L1302.09 44.8827L1301.96 47.88ZM1291.32 49.98L1289.81 47.3919L1289.81 47.3919L1291.32 49.98ZM1286.56 57.68L1283.59 57.2886L1283.59 57.3124L1283.58 57.3361L1286.56 57.68ZM1288.52 64.4L1286.15 66.2343L1286.2 66.2946L1286.25 66.3524L1288.52 64.4ZM1295.24 69.86L1293.7 72.4325L1293.72 72.4436L1293.74 72.4544L1295.24 69.86ZM1304.34 74.48L1303.13 77.2248L1303.14 77.2269L1304.34 74.48ZM1315.26 80.78L1317.03 78.3566L1317.03 78.3566L1315.26 80.78ZM1323.38 90.72L1320.68 92.0122L1320.68 92.0244L1320.69 92.0365L1323.38 90.72ZM1325.06 106.54L1322.09 106.157L1322.09 106.168L1325.06 106.54ZM1319.18 120.82L1316.8 119.003L1316.8 119.003L1319.18 120.82ZM1305.88 130.9L1304.69 128.147L1304.68 128.151L1304.67 128.155L1305.88 130.9ZM1286.14 133.84L1285.95 136.834L1285.96 136.834L1286.14 133.84ZM1268.5 130.06L1267.47 132.878L1267.47 132.878L1268.5 130.06ZM1252.26 120.68L1249.82 118.934L1248.2 121.205L1250.35 122.988L1252.26 120.68ZM1263.18 105.42L1265.17 103.174L1262.68 100.967L1260.74 103.674L1263.18 105.42ZM1274.52 112.7L1273.28 115.429L1273.31 115.445L1273.35 115.46L1274.52 112.7ZM1286.56 115.92L1286.33 118.911L1286.39 118.916L1286.45 118.918L1286.56 115.92ZM1293.98 115.36L1294.53 118.31L1294.58 118.3L1294.63 118.289L1293.98 115.36ZM1300.56 112.14L1302.51 114.426L1302.51 114.426L1300.56 112.14ZM1303.92 105.28L1306.9 105.652L1306.9 105.641L1303.92 105.28ZM1300.42 97.02L1298.38 99.2157L1298.4 99.2349L1298.42 99.2537L1300.42 97.02ZM1290.62 90.58L1289.35 93.2964L1289.36 93.3019L1290.62 90.58ZM1281.38 85.82L1279.92 88.4388L1279.92 88.4388L1281.38 85.82ZM1272.56 79.52L1270.52 81.7184L1270.54 81.7362L1270.56 81.7537L1272.56 79.52ZM1266.54 70.56L1263.75 71.6615L1263.75 71.6615L1266.54 70.56ZM1265.42 57.96L1268.4 58.3602L1268.4 58.3462L1268.4 58.3321L1265.42 57.96ZM1271.3 42.7L1273.7 44.5085L1273.71 44.4959L1273.72 44.4832L1271.3 42.7ZM1283.76 33.04L1284.92 35.8077L1284.94 35.7988L1284.96 35.7896L1283.76 33.04ZM1301.12 29.82L1301.28 26.8239L1301.22 26.8211L1301.17 26.8203L1301.12 29.82ZM1315.26 32.06L1314.38 34.9259L1314.42 34.9383L1314.46 34.9496L1315.26 32.06ZM1334.02 41.72L1336.54 43.3458L1338.03 41.0379L1335.87 39.3519L1334.02 41.72ZM1326.03 54.2038C1322.22 51.6681 1318.26 49.5648 1314.15 47.8992L1311.9 53.4608C1315.62 54.9685 1319.22 56.8785 1322.7 59.1961L1326.03 54.2038ZM1314.23 47.9331C1310.13 46.1327 1306.09 45.0929 1302.12 44.8841L1301.81 50.8758C1304.93 51.0404 1308.26 51.8673 1311.82 53.4269L1314.23 47.9331ZM1302.09 44.8827C1297.35 44.6809 1293.17 45.4189 1289.81 47.3919L1292.84 52.5681C1294.89 51.3677 1297.8 50.7057 1301.84 50.8773L1302.09 44.8827ZM1289.81 47.3919C1286.18 49.5165 1284.16 52.9701 1283.59 57.2886L1289.54 58.0714C1289.9 55.2966 1291.05 53.6168 1292.84 52.5681L1289.81 47.3919ZM1283.58 57.3361C1283.21 60.5921 1284.12 63.6044 1286.15 66.2343L1290.9 62.5657C1289.76 61.0889 1289.36 59.6213 1289.54 58.0239L1283.58 57.3361ZM1286.25 66.3524C1288.18 68.6122 1290.69 70.6285 1293.7 72.4325L1296.79 67.2875C1294.19 65.7315 1292.22 64.1078 1290.8 62.4476L1286.25 66.3524ZM1293.74 72.4544C1296.73 74.1919 1299.86 75.7817 1303.13 77.2248L1305.55 71.7352C1302.48 70.3783 1299.54 68.8881 1296.75 67.2656L1293.74 72.4544ZM1303.14 77.2269C1306.76 78.8177 1310.21 80.8083 1313.5 83.2034L1317.03 78.3566C1313.41 75.7117 1309.58 73.5023 1305.55 71.7331L1303.14 77.2269ZM1313.5 83.2034C1316.52 85.4111 1318.92 88.3248 1320.68 92.0122L1326.09 89.4278C1323.93 84.9019 1320.91 81.1888 1317.03 78.3566L1313.5 83.2034ZM1320.69 92.0365C1322.3 95.3283 1322.89 99.9452 1322.09 106.157L1328.04 106.923C1328.92 100.068 1328.39 94.1384 1326.08 89.4035L1320.69 92.0365ZM1322.09 106.168C1321.5 110.856 1319.75 115.121 1316.8 119.003L1321.57 122.637C1325.15 117.933 1327.32 112.677 1328.04 106.912L1322.09 106.168ZM1316.8 119.003C1313.88 122.836 1309.88 125.898 1304.69 128.147L1307.08 133.653C1313.09 131.049 1317.95 127.391 1321.57 122.637L1316.8 119.003ZM1304.67 128.155C1299.71 130.343 1293.63 131.291 1286.33 130.846L1285.96 136.834C1293.96 137.322 1301.05 136.31 1307.09 133.645L1304.67 128.155ZM1286.33 130.846C1280.76 130.492 1275.16 129.296 1269.53 127.242L1267.47 132.878C1273.61 135.117 1279.77 136.441 1285.95 136.834L1286.33 130.846ZM1269.53 127.242C1263.98 125.216 1258.87 122.265 1254.18 118.372L1250.35 122.988C1255.55 127.308 1261.26 130.61 1267.47 132.878L1269.53 127.242ZM1254.7 122.426L1265.62 107.166L1260.74 103.674L1249.82 118.934L1254.7 122.426ZM1261.19 107.666C1264.7 110.772 1268.74 113.356 1273.28 115.429L1275.77 109.971C1271.72 108.124 1268.2 105.855 1265.17 103.174L1261.19 107.666ZM1273.35 115.46C1277.95 117.418 1282.29 118.6 1286.33 118.911L1286.79 112.929C1283.56 112.68 1279.87 111.715 1275.7 109.94L1273.35 115.46ZM1286.45 118.918C1289.11 119.02 1291.8 118.815 1294.53 118.31L1293.44 112.41C1291.12 112.839 1288.87 113.007 1286.68 112.922L1286.45 118.918ZM1294.63 118.289C1297.6 117.629 1300.25 116.346 1302.51 114.426L1298.62 109.854C1297.15 111.108 1295.4 111.971 1293.33 112.431L1294.63 118.289ZM1302.51 114.426C1305.07 112.248 1306.46 109.205 1306.9 105.652L1300.95 104.908C1300.64 107.328 1299.79 108.859 1298.62 109.854L1302.51 114.426ZM1306.9 105.641C1307.41 101.412 1305.72 97.738 1302.43 94.7863L1298.42 99.2537C1300.54 101.155 1301.18 102.988 1300.95 104.919L1306.9 105.641ZM1302.47 94.8243C1299.5 92.0608 1295.96 89.7461 1291.88 87.8581L1289.36 93.3019C1292.94 94.9606 1295.93 96.9392 1298.38 99.2157L1302.47 94.8243ZM1291.9 87.8636C1288.98 86.4967 1285.96 84.9432 1282.85 83.2012L1279.92 88.4388C1283.15 90.2435 1286.29 91.8633 1289.35 93.2964L1291.9 87.8636ZM1282.85 83.2012C1279.87 81.5359 1277.11 79.5651 1274.57 77.2863L1270.56 81.7537C1273.43 84.3283 1276.55 86.5574 1279.92 88.4388L1282.85 83.2012ZM1274.6 77.3216C1272.34 75.2208 1270.58 72.6176 1269.33 69.4585L1263.75 71.6615C1265.31 75.5957 1267.56 78.9658 1270.52 81.7184L1274.6 77.3216ZM1269.33 69.4585C1268.17 66.5055 1267.79 62.8466 1268.4 58.3602L1262.45 57.5598C1261.75 62.78 1262.12 67.5212 1263.75 71.6615L1269.33 69.4585ZM1268.4 58.3321C1269.09 52.8043 1270.88 48.2319 1273.7 44.5085L1268.91 40.8915C1265.38 45.5681 1263.25 51.169 1262.45 57.5879L1268.4 58.3321ZM1273.72 44.4832C1276.55 40.6441 1280.27 37.7547 1284.92 35.8077L1282.61 30.2723C1277 32.6186 1272.4 36.1692 1268.89 40.9168L1273.72 44.4832ZM1284.96 35.7896C1289.65 33.7444 1295 32.7316 1301.08 32.8197L1301.17 26.8203C1294.36 26.7217 1288.14 27.8555 1282.56 30.2904L1284.96 35.7896ZM1300.97 32.8161C1306.31 33.0875 1310.76 33.8066 1314.38 34.9259L1316.15 29.1941C1311.93 27.8867 1306.95 27.1125 1301.28 26.8239L1300.97 32.8161ZM1314.46 34.9496C1318.29 36.0183 1321.55 37.3347 1324.29 38.8747L1327.23 33.6453C1324 31.8252 1320.27 30.3417 1316.07 29.1704L1314.46 34.9496ZM1324.29 38.8747C1327.16 40.4871 1329.79 42.2257 1332.18 44.0881L1335.87 39.3519C1333.22 37.2943 1330.34 35.3929 1327.23 33.6453L1324.29 38.8747ZM1331.5 40.0942L1321.84 55.0742L1326.88 58.3258L1336.54 43.3458L1331.5 40.0942ZM1395.86 29.96V26.96H1393.21L1392.89 29.5959L1395.86 29.96ZM1460.26 29.96L1463.24 30.3268L1463.66 26.96H1460.26V29.96ZM1457.88 49.28V52.28H1460.54L1460.86 49.6468L1457.88 49.28ZM1414.48 49.28V46.28H1411.82L1411.5 48.9295L1414.48 49.28ZM1411.68 73.08L1408.7 72.7295L1408.31 76.08H1411.68V73.08ZM1449.2 73.08L1452.18 73.4653L1452.62 70.08H1449.2V73.08ZM1446.68 92.54V95.54H1449.32L1449.66 92.9253L1446.68 92.54ZM1409.16 92.54V89.54H1406.51L1406.19 92.1793L1409.16 92.54ZM1404.26 133V136H1406.92L1407.24 133.361L1404.26 133ZM1383.26 133L1380.29 132.636L1379.87 136H1383.26V133ZM1395.86 32.96H1460.26V26.96H1395.86V32.96ZM1457.29 29.5932L1454.91 48.9132L1460.86 49.6468L1463.24 30.3268L1457.29 29.5932ZM1457.88 46.28H1414.48V52.28H1457.88V46.28ZM1411.5 48.9295L1408.7 72.7295L1414.66 73.4305L1417.46 49.6305L1411.5 48.9295ZM1411.68 76.08H1449.2V70.08H1411.68V76.08ZM1446.23 72.6947L1443.71 92.1547L1449.66 92.9253L1452.18 73.4653L1446.23 72.6947ZM1446.68 89.54H1409.16V95.54H1446.68V89.54ZM1406.19 92.1793L1401.29 132.639L1407.24 133.361L1412.14 92.9007L1406.19 92.1793ZM1404.26 130H1383.26V136H1404.26V130ZM1386.24 133.364L1398.84 30.3241L1392.89 29.5959L1380.29 132.636L1386.24 133.364ZM1499.41 131.18L1498.49 134.035L1498.5 134.039L1499.41 131.18ZM1483.45 122.5L1481.52 124.794L1481.54 124.814L1481.56 124.834L1483.45 122.5ZM1471.97 107.24L1469.25 108.5L1469.25 108.508L1469.25 108.515L1471.97 107.24ZM1470.99 65.94L1468.16 64.9436L1468.16 64.9553L1468.15 64.967L1470.99 65.94ZM1481.35 47.74L1479.04 45.8194L1479.04 45.8233L1481.35 47.74ZM1498.85 34.16L1497.54 31.4627L1497.53 31.4661L1497.52 31.4696L1498.85 34.16ZM1541.13 31.78L1540.21 34.6352L1540.22 34.6394L1541.13 31.78ZM1557.09 40.6L1555.16 42.8936L1555.18 42.9139L1555.2 42.9338L1557.09 40.6ZM1568.71 55.86L1565.99 57.1197L1565.99 57.1276L1565.99 57.1354L1568.71 55.86ZM1569.55 97.16L1566.72 96.1636L1566.72 96.1753L1566.71 96.187L1569.55 97.16ZM1559.19 115.36L1556.88 113.439L1556.88 113.443L1559.19 115.36ZM1541.69 128.8L1540.38 126.103L1540.37 126.106L1540.36 126.11L1541.69 128.8ZM1533.43 111.16L1534.75 113.855L1534.76 113.849L1534.77 113.843L1533.43 111.16ZM1544.21 102.48L1541.82 100.66L1541.82 100.66L1544.21 102.48ZM1550.09 91L1547.23 90.0904L1547.22 90.1201L1547.21 90.15L1550.09 91ZM1548.27 64.12L1545.63 65.5454L1545.64 65.5567L1545.64 65.5678L1548.27 64.12ZM1537.91 52.92L1536.26 55.4243L1536.28 55.4367L1536.3 55.4488L1537.91 52.92ZM1506.69 51.94L1508.01 54.6346L1508.03 54.6234L1508.05 54.6118L1506.69 51.94ZM1496.05 60.48L1493.66 58.66L1493.65 58.6801L1493.63 58.7004L1496.05 60.48ZM1490.31 71.96L1487.43 71.11L1487.42 71.1402L1487.42 71.1706L1490.31 71.96ZM1492.27 98.98L1489.61 100.364L1489.61 100.375L1489.62 100.386L1492.27 98.98ZM1502.35 110.18L1500.67 112.668L1500.69 112.68L1500.71 112.693L1502.35 110.18ZM1517.05 130.98C1511.49 130.98 1505.92 130.099 1500.32 128.321L1498.5 134.039C1504.66 135.995 1510.85 136.98 1517.05 136.98V130.98ZM1500.33 128.325C1494.9 126.574 1489.91 123.861 1485.33 120.166L1481.56 124.834C1486.7 128.979 1492.34 132.052 1498.49 134.035L1500.33 128.325ZM1485.38 120.206C1480.98 116.497 1477.41 111.77 1474.68 105.965L1469.25 108.515C1472.31 115.03 1476.39 120.476 1481.52 124.794L1485.38 120.206ZM1474.69 105.98C1472.02 100.207 1470.63 93.2358 1470.63 84.98H1464.63C1464.63 93.8975 1466.13 101.767 1469.25 108.5L1474.69 105.98ZM1470.63 84.98C1470.63 79.1886 1471.68 73.1707 1473.83 66.913L1468.15 64.967C1465.82 71.7759 1464.63 78.4514 1464.63 84.98H1470.63ZM1473.82 66.9364C1476.03 60.6514 1479.31 54.8952 1483.66 49.6567L1479.04 45.8233C1474.25 51.5981 1470.61 57.9753 1468.16 64.9436L1473.82 66.9364ZM1483.65 49.6605C1488.03 44.405 1493.53 40.1316 1500.18 36.8504L1497.52 31.4696C1490.17 35.0951 1484 39.875 1479.04 45.8194L1483.65 49.6605ZM1500.16 36.8573C1506.77 33.6383 1514.57 31.98 1523.63 31.98V25.98C1513.84 25.98 1505.11 27.775 1497.54 31.4627L1500.16 36.8573ZM1523.63 31.98C1529.19 31.98 1534.71 32.8611 1540.21 34.6351L1542.05 28.9249C1535.98 26.9655 1529.83 25.98 1523.63 25.98V31.98ZM1540.22 34.6394C1545.72 36.3856 1550.69 39.132 1555.16 42.8936L1559.02 38.3064C1553.96 34.0413 1548.3 30.9077 1542.04 28.9206L1540.22 34.6394ZM1555.2 42.9338C1559.66 46.5356 1563.27 51.2397 1565.99 57.1197L1571.43 54.6003C1568.37 47.9736 1564.22 42.5043 1558.97 38.2662L1555.2 42.9338ZM1565.99 57.1354C1568.66 62.8061 1570.05 69.7223 1570.05 77.98H1576.05C1576.05 69.0644 1574.55 61.2339 1571.42 54.5846L1565.99 57.1354ZM1570.05 77.98C1570.05 83.7566 1568.96 89.8127 1566.72 96.1636L1572.38 98.1564C1574.81 91.2539 1576.05 84.5234 1576.05 77.98H1570.05ZM1566.71 96.187C1564.6 102.356 1561.33 108.104 1556.88 113.439L1561.49 117.281C1566.38 111.416 1570.02 105.031 1572.39 98.133L1566.71 96.187ZM1556.88 113.443C1552.61 118.59 1547.13 122.817 1540.38 126.103L1543 131.497C1550.44 127.877 1556.62 123.143 1561.5 117.277L1556.88 113.443ZM1540.36 126.11C1533.85 129.321 1526.11 130.98 1517.05 130.98V136.98C1526.84 136.98 1535.53 135.185 1543.02 131.49L1540.36 126.11ZM1517.33 117.38C1524 117.38 1529.85 116.253 1534.75 113.855L1532.11 108.465C1528.24 110.36 1523.35 111.38 1517.33 111.38V117.38ZM1534.77 113.843C1539.61 111.424 1543.58 108.253 1546.59 104.3L1541.82 100.66C1539.43 103.801 1536.21 106.416 1532.09 108.477L1534.77 113.843ZM1546.59 104.3C1549.51 100.475 1551.65 96.3219 1552.97 91.85L1547.21 90.15C1546.11 93.8914 1544.32 97.3916 1541.82 100.66L1546.59 104.3ZM1552.95 91.9096C1554.34 87.5454 1555.05 83.2715 1555.05 79.1H1549.05C1549.05 82.5818 1548.46 86.2413 1547.23 90.0904L1552.95 91.9096ZM1555.05 79.1C1555.05 73.1997 1553.67 67.7056 1550.9 62.6722L1545.64 65.5678C1547.91 69.6811 1549.05 74.1736 1549.05 79.1H1555.05ZM1550.91 62.6946C1548.15 57.5878 1544.35 53.4712 1539.52 50.3912L1536.3 55.4488C1540.24 57.9688 1543.35 61.3188 1545.63 65.5454L1550.91 62.6946ZM1539.56 50.4157C1534.64 47.1719 1529.02 45.58 1522.79 45.58V51.58C1527.95 51.58 1532.4 52.8814 1536.26 55.4243L1539.56 50.4157ZM1522.79 45.58C1516.1 45.58 1510.24 46.7593 1505.33 49.2682L1508.05 54.6118C1511.91 52.6407 1516.78 51.58 1522.79 51.58V45.58ZM1505.37 49.2453C1500.61 51.5771 1496.68 54.7089 1493.66 58.66L1498.43 62.3C1500.83 59.1578 1504 56.5962 1508.01 54.6346L1505.37 49.2453ZM1493.63 58.7004C1490.82 62.5195 1488.75 66.6593 1487.43 71.11L1493.19 72.81C1494.3 69.0473 1496.05 65.5338 1498.46 62.2596L1493.63 58.7004ZM1487.42 71.1706C1486.23 75.5061 1485.63 79.7387 1485.63 83.86H1491.63C1491.63 80.328 1492.15 76.6272 1493.2 72.7493L1487.42 71.1706ZM1485.63 83.86C1485.63 89.7406 1486.95 95.2572 1489.61 100.364L1494.93 97.5959C1492.73 93.3695 1491.63 88.8061 1491.63 83.86H1485.63ZM1489.62 100.386C1492.28 105.394 1495.97 109.499 1500.67 112.668L1504.03 107.692C1500.14 105.074 1497.12 101.712 1494.92 97.5739L1489.62 100.386ZM1500.71 112.693C1505.54 115.845 1511.12 117.38 1517.33 117.38V111.38C1512.15 111.38 1507.74 110.115 1503.99 107.667L1500.71 112.693ZM1658.95 39.48L1656.8 41.5694L1656.81 41.5855L1656.83 41.6013L1658.95 39.48ZM1666.37 64.68L1669.34 65.0579L1669.35 65.0489L1666.37 64.68ZM1660.49 82.04L1663.11 83.5006L1663.11 83.5006L1660.49 82.04ZM1646.35 95.62L1644.93 92.9773L1642.33 94.3747L1643.68 96.9975L1646.35 95.62ZM1665.67 133V136H1670.6L1668.33 131.623L1665.67 133ZM1642.01 133L1639.37 134.431L1640.22 136H1642.01V133ZM1624.23 100.24L1626.86 98.809L1626.01 97.24H1624.23V100.24ZM1610.79 100.24V97.24H1608.14L1607.81 99.871L1610.79 100.24ZM1606.73 133V136H1609.38L1609.71 133.369L1606.73 133ZM1586.43 133L1583.45 132.636L1583.04 136H1586.43V133ZM1599.03 29.96V26.96H1596.37L1596.05 29.5959L1599.03 29.96ZM1637.53 78.12L1639.19 80.6161L1639.22 80.5952L1639.25 80.5734L1637.53 78.12ZM1643.13 71.96L1645.79 73.3441L1645.8 73.3229L1645.81 73.3016L1643.13 71.96ZM1645.23 65.38L1642.27 64.8868L1642.25 64.9907L1642.24 65.0956L1645.23 65.38ZM1645.23 61.18L1642.23 61.3377L1642.24 61.4247L1642.25 61.5113L1645.23 61.18ZM1643.83 55.86L1641.06 57.0242L1641.09 57.0848L1641.12 57.1443L1643.83 55.86ZM1639.77 51.38L1638.19 53.9308L1638.19 53.9308L1639.77 51.38ZM1616.95 49.56V46.56H1614.29L1613.97 49.1978L1616.95 49.56ZM1613.17 80.64L1610.19 80.2778L1609.78 83.64H1613.17V80.64ZM1630.25 32.96C1642.79 32.96 1651.42 36.03 1656.8 41.5694L1661.1 37.3906C1654.16 30.2366 1643.65 26.96 1630.25 26.96V32.96ZM1656.83 41.6013C1662.29 47.0666 1664.61 54.4756 1663.39 64.3111L1669.35 65.0489C1670.74 53.7911 1668.11 44.4001 1661.07 37.3587L1656.83 41.6013ZM1663.39 64.3021C1662.7 69.7656 1660.87 75.1875 1657.87 80.5794L1663.11 83.5006C1666.45 77.5058 1668.54 71.3544 1669.34 65.0579L1663.39 64.3021ZM1657.87 80.5794C1655 85.7277 1650.72 89.8634 1644.93 92.9773L1647.77 98.2627C1654.48 94.6565 1659.63 89.739 1663.11 83.5006L1657.87 80.5794ZM1643.68 96.9975L1663 134.377L1668.33 131.623L1649.01 94.2425L1643.68 96.9975ZM1665.67 130H1642.01V136H1665.67V130ZM1644.64 131.569L1626.86 98.809L1621.59 101.671L1639.37 134.431L1644.64 131.569ZM1624.23 97.24H1610.79V103.24H1624.23V97.24ZM1607.81 99.871L1603.75 132.631L1609.71 133.369L1613.77 100.609L1607.81 99.871ZM1606.73 130H1586.43V136H1606.73V130ZM1589.41 133.364L1602.01 30.3241L1596.05 29.5959L1583.45 132.636L1589.41 133.364ZM1599.03 32.96H1630.25V26.96H1599.03V32.96ZM1627.59 83.64C1632.08 83.64 1636.03 82.7226 1639.19 80.6161L1635.86 75.6238C1633.98 76.8774 1631.31 77.64 1627.59 77.64V83.64ZM1639.25 80.5734C1642.1 78.5711 1644.32 76.1711 1645.79 73.3441L1640.47 70.5759C1639.51 72.4155 1638 74.1223 1635.8 75.6666L1639.25 80.5734ZM1645.81 73.3016C1647.13 70.6607 1647.98 68.103 1648.21 65.6644L1642.24 65.0956C1642.1 66.577 1641.55 68.406 1640.44 70.6184L1645.81 73.3016ZM1648.19 65.8732C1648.44 64.3828 1648.41 62.6832 1648.21 60.8487L1642.25 61.5113C1642.42 63.0368 1642.39 64.1371 1642.27 64.8868L1648.19 65.8732ZM1648.22 61.0223C1648.11 58.8194 1647.53 56.6653 1646.54 54.5757L1641.12 57.1443C1641.81 58.6014 1642.16 59.9939 1642.23 61.3377L1648.22 61.0223ZM1646.59 54.6958C1645.56 52.2421 1643.73 50.304 1641.35 48.8292L1638.19 53.9308C1639.73 54.8826 1640.6 55.9312 1641.06 57.0242L1646.59 54.6958ZM1641.35 48.8292C1638.72 47.2043 1635.34 46.56 1631.51 46.56V52.56C1634.77 52.56 1636.89 53.129 1638.19 53.9308L1641.35 48.8292ZM1631.51 46.56H1616.95V52.56H1631.51V46.56ZM1613.97 49.1978L1610.19 80.2778L1616.15 81.0022L1619.93 49.9222L1613.97 49.1978ZM1613.17 83.64H1627.59V77.64H1613.17V83.64ZM1755.73 100.94L1758.71 101.304L1758.81 100.524L1758.51 99.7966L1755.73 100.94ZM1726.47 29.96V26.96H1721.99L1723.7 31.1033L1726.47 29.96ZM1751.53 29.96L1754.34 28.9102L1753.62 26.96H1751.53V29.96ZM1769.31 77.56L1766.5 78.6097L1768.66 84.3953L1771.88 79.1201L1769.31 77.56ZM1798.29 29.96V26.96H1796.61L1795.73 28.3999L1798.29 29.96ZM1823.35 29.96L1825.85 31.6241L1828.96 26.96H1823.35V29.96ZM1776.03 100.94L1773.54 99.2759L1773.14 99.8687L1773.06 100.576L1776.03 100.94ZM1772.11 133V136H1774.77L1775.09 133.364L1772.11 133ZM1751.81 133L1748.84 132.636L1748.42 136H1751.81V133ZM1758.51 99.7966L1729.25 28.8166L1723.7 31.1033L1752.96 102.083L1758.51 99.7966ZM1726.47 32.96H1751.53V26.96H1726.47V32.96ZM1748.72 31.0097L1766.5 78.6097L1772.12 76.5103L1754.34 28.9102L1748.72 31.0097ZM1771.88 79.1201L1800.86 31.5201L1795.73 28.3999L1766.75 75.9999L1771.88 79.1201ZM1798.29 32.96H1823.35V26.96H1798.29V32.96ZM1820.86 28.2959L1773.54 99.2759L1778.53 102.604L1825.85 31.6241L1820.86 28.2959ZM1773.06 100.576L1769.14 132.636L1775.09 133.364L1779.01 101.304L1773.06 100.576ZM1772.11 130H1751.81V136H1772.11V130ZM1754.79 133.364L1758.71 101.304L1752.76 100.576L1748.84 132.636L1754.79 133.364ZM1847.22 131.18L1846.3 134.035L1846.31 134.039L1847.22 131.18ZM1831.26 122.5L1829.33 124.794L1829.35 124.814L1829.38 124.834L1831.26 122.5ZM1819.78 107.24L1817.06 108.5L1817.06 108.508L1817.07 108.515L1819.78 107.24ZM1818.8 65.94L1815.97 64.9436L1815.97 64.9553L1815.96 64.967L1818.8 65.94ZM1829.16 47.74L1826.86 45.8194L1826.85 45.8233L1829.16 47.74ZM1846.66 34.16L1845.35 31.4627L1845.34 31.4661L1845.33 31.4696L1846.66 34.16ZM1888.94 31.78L1888.02 34.6352L1888.03 34.6394L1888.94 31.78ZM1904.9 40.6L1902.97 42.8936L1902.99 42.9139L1903.02 42.9338L1904.9 40.6ZM1916.52 55.86L1913.8 57.1197L1913.8 57.1276L1913.81 57.1354L1916.52 55.86ZM1917.36 97.16L1914.53 96.1636L1914.53 96.1753L1914.52 96.187L1917.36 97.16ZM1907 115.36L1904.7 113.439L1904.69 113.443L1907 115.36ZM1889.5 128.8L1888.19 126.103L1888.18 126.106L1888.17 126.11L1889.5 128.8ZM1881.24 111.16L1882.56 113.855L1882.57 113.849L1882.58 113.843L1881.24 111.16ZM1892.02 102.48L1889.64 100.66L1889.64 100.66L1892.02 102.48ZM1897.9 91L1895.04 90.0904L1895.03 90.1201L1895.02 90.15L1897.9 91ZM1896.08 64.12L1893.44 65.5454L1893.45 65.5567L1893.45 65.5678L1896.08 64.12ZM1885.72 52.92L1884.07 55.4243L1884.09 55.4367L1884.11 55.4488L1885.72 52.92ZM1854.5 51.94L1855.82 54.6346L1855.84 54.6234L1855.87 54.6118L1854.5 51.94ZM1843.86 60.48L1841.48 58.66L1841.46 58.6801L1841.45 58.7004L1843.86 60.48ZM1838.12 71.96L1835.24 71.11L1835.24 71.1402L1835.23 71.1706L1838.12 71.96ZM1840.08 98.98L1837.42 100.364L1837.43 100.375L1837.43 100.386L1840.08 98.98ZM1850.16 110.18L1848.49 112.668L1848.5 112.68L1848.52 112.693L1850.16 110.18ZM1864.86 130.98C1859.3 130.98 1853.73 130.099 1848.13 128.321L1846.31 134.039C1852.47 135.995 1858.66 136.98 1864.86 136.98V130.98ZM1848.14 128.325C1842.72 126.574 1837.72 123.861 1833.15 120.166L1829.38 124.834C1834.51 128.979 1840.15 132.052 1846.3 134.035L1848.14 128.325ZM1833.2 120.206C1828.8 116.497 1825.22 111.77 1822.5 105.965L1817.07 108.515C1820.13 115.03 1824.21 120.476 1829.33 124.794L1833.2 120.206ZM1822.5 105.98C1819.83 100.207 1818.44 93.2358 1818.44 84.98H1812.44C1812.44 93.8975 1813.94 101.767 1817.06 108.5L1822.5 105.98ZM1818.44 84.98C1818.44 79.1886 1819.49 73.1707 1821.64 66.913L1815.96 64.967C1813.63 71.7759 1812.44 78.4514 1812.44 84.98H1818.44ZM1821.63 66.9364C1823.84 60.6514 1827.12 54.8952 1831.47 49.6567L1826.85 45.8233C1822.06 51.5981 1818.43 57.9753 1815.97 64.9436L1821.63 66.9364ZM1831.47 49.6605C1835.85 44.405 1841.34 40.1316 1847.99 36.8504L1845.33 31.4696C1837.99 35.0951 1831.81 39.875 1826.86 45.8194L1831.47 49.6605ZM1847.98 36.8573C1854.59 33.6383 1862.38 31.98 1871.44 31.98V25.98C1861.65 25.98 1852.92 27.775 1845.35 31.4627L1847.98 36.8573ZM1871.44 31.98C1877 31.98 1882.52 32.8611 1888.02 34.6351L1889.86 28.9249C1883.79 26.9655 1877.65 25.98 1871.44 25.98V31.98ZM1888.03 34.6394C1893.53 36.3856 1898.51 39.132 1902.97 42.8936L1906.84 38.3064C1901.78 34.0413 1896.11 30.9077 1889.85 28.9206L1888.03 34.6394ZM1903.02 42.9338C1907.48 46.5356 1911.08 51.2397 1913.8 57.1197L1919.24 54.6003C1916.18 47.9736 1912.03 42.5043 1906.79 38.2662L1903.02 42.9338ZM1913.81 57.1354C1916.47 62.8061 1917.86 69.7223 1917.86 77.98H1923.86C1923.86 69.0644 1922.36 61.2339 1919.24 54.5846L1913.81 57.1354ZM1917.86 77.98C1917.86 83.7566 1916.77 89.8127 1914.53 96.1636L1920.19 98.1564C1922.62 91.2539 1923.86 84.5234 1923.86 77.98H1917.86ZM1914.52 96.187C1912.41 102.356 1909.14 108.104 1904.7 113.439L1909.31 117.281C1914.19 111.416 1917.83 105.031 1920.2 98.133L1914.52 96.187ZM1904.69 113.443C1900.42 118.59 1894.94 122.817 1888.19 126.103L1890.82 131.497C1898.25 127.877 1904.44 123.143 1909.31 117.277L1904.69 113.443ZM1888.17 126.11C1881.66 129.321 1873.92 130.98 1864.86 130.98V136.98C1874.65 136.98 1883.34 135.185 1890.83 131.49L1888.17 126.11ZM1865.14 117.38C1871.81 117.38 1877.66 116.253 1882.56 113.855L1879.92 108.465C1876.05 110.36 1871.16 111.38 1865.14 111.38V117.38ZM1882.58 113.843C1887.42 111.424 1891.39 108.253 1894.41 104.3L1889.64 100.66C1887.24 103.801 1884.02 106.416 1879.9 108.477L1882.58 113.843ZM1894.41 104.3C1897.33 100.475 1899.46 96.3219 1900.78 91.85L1895.02 90.15C1893.92 93.8914 1892.13 97.3916 1889.64 100.66L1894.41 104.3ZM1900.76 91.9096C1902.15 87.5454 1902.86 83.2715 1902.86 79.1H1896.86C1896.86 82.5818 1896.27 86.2413 1895.04 90.0904L1900.76 91.9096ZM1902.86 79.1C1902.86 73.1997 1901.48 67.7056 1898.71 62.6722L1893.45 65.5678C1895.72 69.6811 1896.86 74.1736 1896.86 79.1H1902.86ZM1898.72 62.6946C1895.96 57.5878 1892.16 53.4712 1887.34 50.3912L1884.11 55.4488C1888.06 57.9688 1891.16 61.3188 1893.44 65.5454L1898.72 62.6946ZM1887.37 50.4157C1882.46 47.1719 1876.83 45.58 1870.6 45.58V51.58C1875.76 51.58 1880.21 52.8814 1884.07 55.4243L1887.37 50.4157ZM1870.6 45.58C1863.91 45.58 1858.05 46.7593 1853.14 49.2682L1855.87 54.6118C1859.73 52.6407 1864.6 51.58 1870.6 51.58V45.58ZM1853.18 49.2453C1848.42 51.5771 1844.49 54.7089 1841.48 58.66L1846.25 62.3C1848.64 59.1578 1851.81 56.5962 1855.82 54.6346L1853.18 49.2453ZM1841.45 58.7004C1838.63 62.5195 1836.56 66.6593 1835.24 71.11L1841 72.81C1842.11 69.0473 1843.86 65.5338 1846.28 62.2596L1841.45 58.7004ZM1835.23 71.1706C1834.05 75.5061 1833.44 79.7387 1833.44 83.86H1839.44C1839.44 80.328 1839.96 76.6272 1841.02 72.7493L1835.23 71.1706ZM1833.44 83.86C1833.44 89.7406 1834.76 95.2572 1837.42 100.364L1842.74 97.5959C1840.55 93.3695 1839.44 88.8061 1839.44 83.86H1833.44ZM1837.43 100.386C1840.09 105.394 1843.78 109.499 1848.49 112.668L1851.84 107.692C1847.95 105.074 1844.93 101.712 1842.73 97.5739L1837.43 100.386ZM1848.52 112.693C1853.36 115.845 1858.93 117.38 1865.14 117.38V111.38C1859.96 111.38 1855.55 110.115 1851.8 107.667L1848.52 112.693ZM1959.86 94.92L1956.88 94.5542L1956.88 94.5668L1956.88 94.5794L1959.86 94.92ZM1961.4 104.3L1958.68 105.573L1958.7 105.608L1958.72 105.642L1961.4 104.3ZM1967.98 111.58L1969.61 109.059L1969.61 109.059L1967.98 111.58ZM1988.84 111.58L1987.38 108.958L1987.38 108.958L1988.84 111.58ZM1997.24 104.3L1994.88 102.453L1994.86 102.476L1994.84 102.5L1997.24 104.3ZM2001.3 94.92L1998.32 94.5542L1998.32 94.5668L1998.32 94.5794L2001.3 94.92ZM2009.28 29.96V26.96H2006.63L2006.3 29.5942L2009.28 29.96ZM2030.28 29.96L2033.26 30.3235L2033.67 26.96H2030.28V29.96ZM2022.3 95.34L2025.28 95.7076L2025.28 95.7035L2022.3 95.34ZM2014.18 115.5L2016.55 117.337L2016.56 117.327L2016.57 117.318L2014.18 115.5ZM1997.38 129.22L1998.69 131.918L1998.71 131.911L1998.72 131.903L1997.38 129.22ZM1955.24 129.22L1953.75 131.825L1953.78 131.839L1953.8 131.852L1955.24 129.22ZM1941.94 115.5L1939.27 116.859L1939.27 116.867L1939.27 116.876L1941.94 115.5ZM1938.86 95.34L1941.84 95.7076L1941.84 95.7035L1938.86 95.34ZM1946.84 29.96V26.96H1944.18L1943.86 29.5965L1946.84 29.96ZM1967.84 29.96L1970.82 30.3258L1971.23 26.96H1967.84V29.96ZM1956.88 94.5794C1956.44 98.4 1957.05 102.085 1958.68 105.573L1964.12 103.027C1962.95 100.541 1962.53 97.9734 1962.84 95.2606L1956.88 94.5794ZM1958.72 105.642C1960.46 109.124 1963.02 111.952 1966.35 114.101L1969.61 109.059C1967.15 107.474 1965.33 105.449 1964.08 102.958L1958.72 105.642ZM1966.35 114.101C1969.79 116.315 1973.72 117.38 1978.06 117.38V111.38C1974.74 111.38 1971.96 110.579 1969.61 109.059L1966.35 114.101ZM1978.06 117.38C1982.4 117.38 1986.49 116.316 1990.3 114.202L1987.38 108.958C1984.47 110.578 1981.38 111.38 1978.06 111.38V117.38ZM1990.3 114.202C1994.02 112.137 1997.14 109.434 1999.64 106.1L1994.84 102.5C1992.86 105.139 1990.39 107.289 1987.38 108.958L1990.3 114.202ZM1999.6 106.147C2002.23 102.792 2003.84 99.1562 2004.28 95.2606L1998.32 94.5794C1998.02 97.2171 1996.92 99.8343 1994.88 102.453L1999.6 106.147ZM2004.28 95.2858L2012.26 30.3258L2006.3 29.5942L1998.32 94.5542L2004.28 95.2858ZM2009.28 32.96H2030.28V26.96H2009.28V32.96ZM2027.3 29.5965L2019.32 94.9765L2025.28 95.7035L2033.26 30.3235L2027.3 29.5965ZM2019.32 94.9724C2018.45 102.022 2015.94 108.238 2011.79 113.682L2016.57 117.318C2021.38 111.002 2024.28 103.778 2025.28 95.7076L2019.32 94.9724ZM2011.81 113.663C2007.61 119.084 2002.37 123.373 1996.04 126.537L1998.72 131.903C2005.83 128.347 2011.79 123.489 2016.55 117.337L2011.81 113.663ZM1996.07 126.522C1989.77 129.583 1982.99 131.12 1975.68 131.12V137.12C1983.86 137.12 1991.55 135.391 1998.69 131.918L1996.07 126.522ZM1975.68 131.12C1968.47 131.12 1962.16 129.584 1956.68 126.588L1953.8 131.852C1960.27 135.389 1967.59 137.12 1975.68 137.12V131.12ZM1956.73 126.615C1951.33 123.531 1947.32 119.375 1944.61 114.124L1939.27 116.876C1942.54 123.199 1947.39 128.189 1953.75 131.825L1956.73 126.615ZM1944.62 114.141C1941.94 108.873 1940.97 102.769 1941.84 95.7076L1935.88 94.9724C1934.89 103.031 1935.97 110.367 1939.27 116.859L1944.62 114.141ZM1941.84 95.7035L1949.82 30.3235L1943.86 29.5965L1935.88 94.9765L1941.84 95.7035ZM1946.84 32.96H1967.84V26.96H1946.84V32.96ZM1964.86 29.5942L1956.88 94.5542L1962.84 95.2858L1970.82 30.3258L1964.86 29.5942Z" fill="#FF5348"/>
<path d="M75 4.85409L90.412 52.2872L90.7487 53.3237H91.8385H141.713L101.364 82.639L100.482 83.2796L100.819 84.3161L116.231 131.749L75.8817 102.434L75 101.793L74.1183 102.434L33.7693 131.749L49.1812 84.3161L49.518 83.2796L48.6363 82.639L8.28728 53.3237H58.1614H59.2513L59.588 52.2872L75 4.85409Z" fill="white" stroke="#FF5348" stroke-width="3"/>
<path d="M2187 4.85409L2202.41 52.2872L2202.75 53.3237H2203.84H2253.71L2213.36 82.639L2212.48 83.2796L2212.82 84.3161L2228.23 131.749L2187.88 102.434L2187 101.793L2186.12 102.434L2145.77 131.749L2161.18 84.3161L2161.52 83.2796L2160.64 82.639L2120.29 53.3237H2170.16H2171.25L2171.59 52.2872L2187 4.85409Z" fill="white" stroke="#FF5348" stroke-width="3"/>
</svg>
